<svg width="50" height="50" viewBox="0 0 50 50" fill="none" xmlns="http://www.w3.org/2000/svg">
<path d="M25.0001 49.1666C31.9037 49.1666 37.5001 38.3469 37.5001 25C37.5001 11.6531 31.9037 0.833313 25.0001 0.833313C18.0966 0.833313 12.5001 11.6531 12.5001 25C12.5001 38.3469 18.0966 49.1666 25.0001 49.1666Z" fill="#E8EDFC"/>
<path fill-rule="evenodd" clip-rule="evenodd" d="M25.0001 0.833313C24.581 0.833313 24.1618 0.87498 23.7501 0.954146C30.0668 2.16665 35.0001 12.4691 35.0001 25C35.0001 37.5308 30.0668 47.8333 23.7501 49.0458C24.1618 49.1258 24.581 49.1658 25.0001 49.1666C31.9035 49.1666 37.5001 38.3466 37.5001 25C37.5001 11.6533 31.9035 0.833313 25.0001 0.833313Z" fill="#CAD9FC"/>
<path fill-rule="evenodd" clip-rule="evenodd" d="M46.8001 34.3667C47.1001 31.5833 45.9417 28.3 43.6251 25C41.7408 22.3965 39.5025 20.0685 36.9751 18.0833C35.1713 16.6337 33.2571 15.3269 31.2501 14.175C29.2492 13.0146 27.1626 12.0089 25.0084 11.1667H25.0001C22.0186 9.97463 18.8858 9.20334 15.6917 8.87501C11.3667 8.49167 7.72506 9.25001 5.49173 11.2083L3.20006 15.6333C2.90006 18.4167 4.05839 21.7 6.37506 25C8.25935 27.6035 10.4976 29.9315 13.0251 31.9167C14.8289 33.3663 16.743 34.6731 18.7501 35.825C20.7509 36.9854 22.8375 37.9911 24.9917 38.8333H25.0001C27.9815 40.0254 31.1143 40.7967 34.3084 41.125C38.6334 41.5083 42.2751 40.75 44.5084 38.7917L46.8001 34.3667Z" fill="#E8EDFC"/>
<path fill-rule="evenodd" clip-rule="evenodd" d="M43.6251 25C41.7408 22.3964 39.5026 20.0684 36.9751 18.0833C35.1713 16.6336 33.2572 15.3269 31.2501 14.175C29.2493 13.0146 27.1627 12.0088 25.0085 11.1666H25.0001C22.0187 9.97459 18.8859 9.2033 15.6918 8.87497C14.5716 8.77357 13.4453 8.75714 12.3226 8.8258C12.6118 8.8408 12.896 8.84913 13.1918 8.87497C16.3859 9.2033 19.5187 9.97459 22.5001 11.1666H22.5085C24.6627 12.0088 26.7493 13.0146 28.7501 14.175C30.7572 15.3269 32.6713 16.6336 34.4751 18.0833C37.0026 20.0684 39.2408 22.3964 41.1251 25C43.4418 28.3 44.6001 31.5833 44.3001 34.3666L42.0085 38.7916C40.3851 40.215 38.0085 40.9966 35.1751 41.1741C39.1143 41.3858 42.4251 40.6158 44.5085 38.7916L46.8001 34.3666C47.1001 31.5833 45.9418 28.3 43.6251 25Z" fill="#CAD9FC"/>
<path fill-rule="evenodd" clip-rule="evenodd" d="M46.8001 15.6333C47.1001 18.4167 45.9417 21.7 43.6251 25C41.7408 27.6035 39.5025 29.9315 36.9751 31.9167C35.1713 33.3663 33.2571 34.6731 31.2501 35.825C29.2464 36.9855 27.157 37.9912 25.0001 38.8333H24.9917C22.0129 40.0244 18.8829 40.7956 15.6917 41.125C11.3667 41.5083 7.72506 40.75 5.49173 38.7917L3.20006 34.3667C2.90006 31.5833 4.05839 28.3 6.37506 25C8.25935 22.3965 10.4976 20.0685 13.0251 18.0833C14.8289 16.6337 16.743 15.3269 18.7501 14.175C20.7537 13.0145 22.8431 12.0088 25.0001 11.1667H25.0084C27.9873 9.97564 31.1172 9.20438 34.3084 8.87501C38.6334 8.49167 42.2751 9.25001 44.5084 11.2083L46.8001 15.6333Z" fill="#E8EDFC"/>
<path fill-rule="evenodd" clip-rule="evenodd" d="M46.8001 15.6333L44.5085 11.2083C42.4251 9.38416 39.116 8.61416 35.1751 8.82583C38.0085 9.00333 40.3826 9.78499 42.0085 11.2083L44.3001 15.6333C44.6001 18.4167 43.4418 21.7 41.1251 25C39.2408 27.6035 37.0026 29.9315 34.4751 31.9167C32.6713 33.3663 30.7572 34.6731 28.7501 35.825C26.7465 36.9855 24.657 37.9912 22.5001 38.8333H22.4918C19.5129 40.0244 16.383 40.7956 13.1918 41.125C12.896 41.1508 12.6085 41.1592 12.3226 41.1742C13.4451 41.2425 14.5718 41.2267 15.6918 41.125C18.883 40.7956 22.0129 40.0244 24.9918 38.8333H25.0001C27.157 37.9912 29.2465 36.9855 31.2501 35.825C33.2572 34.6731 35.1713 33.3663 36.9751 31.9167C39.5026 29.9315 41.7408 27.6035 43.6251 25C45.9418 21.7 47.1001 18.4167 46.8001 15.6333Z" fill="#CAD9FC"/>
<path d="M4.16675 15.8333C5.54746 15.8333 6.66675 14.714 6.66675 13.3333C6.66675 11.9526 5.54746 10.8333 4.16675 10.8333C2.78604 10.8333 1.66675 11.9526 1.66675 13.3333C1.66675 14.714 2.78604 15.8333 4.16675 15.8333Z" fill="#E8EDFC"/>
<path d="M45.8334 39.1666C47.2141 39.1666 48.3334 38.0473 48.3334 36.6666C48.3334 35.2859 47.2141 34.1666 45.8334 34.1666C44.4527 34.1666 43.3334 35.2859 43.3334 36.6666C43.3334 38.0473 44.4527 39.1666 45.8334 39.1666Z" fill="#E8EDFC"/>
<path d="M4.16675 39.1666C5.54746 39.1666 6.66675 38.0473 6.66675 36.6666C6.66675 35.2859 5.54746 34.1666 4.16675 34.1666C2.78604 34.1666 1.66675 35.2859 1.66675 36.6666C1.66675 38.0473 2.78604 39.1666 4.16675 39.1666Z" fill="#E8EDFC"/>
<path d="M45.8334 15.8333C47.2141 15.8333 48.3334 14.714 48.3334 13.3333C48.3334 11.9526 47.2141 10.8333 45.8334 10.8333C44.4527 10.8333 43.3334 11.9526 43.3334 13.3333C43.3334 14.714 44.4527 15.8333 45.8334 15.8333Z" fill="#E8EDFC"/>
<path fill-rule="evenodd" clip-rule="evenodd" d="M37.5001 25C37.5001 26.5166 37.4251 28 37.2918 29.4416C37.2085 30.2833 37.1084 31.1083 36.9751 31.9166C36.0668 32.65 35.1084 33.3583 34.1001 34.0416C33.1918 34.6583 32.2418 35.2583 31.2501 35.825C29.2464 36.9855 27.157 37.9912 25.0001 38.8333H24.9918C24.5835 38.675 24.1668 38.5083 23.7501 38.325C22.0342 37.5941 20.3644 36.7592 18.7501 35.825C16.7431 34.673 14.8289 33.3663 13.0251 31.9166C12.3251 27.3321 12.3251 22.6678 13.0251 18.0833C14.8289 16.6336 16.7431 15.3269 18.7501 14.175C20.3672 13.2406 22.0398 12.4058 23.7585 11.675C24.1751 11.4916 24.5918 11.325 25.0001 11.1666H25.0085C27.1626 12.0088 29.2493 13.0145 31.2501 14.175C32.2418 14.7416 33.1918 15.3416 34.1001 15.9583C35.1084 16.6416 36.0668 17.35 36.9751 18.0833C37.1084 18.8916 37.2085 19.7166 37.2918 20.5583C37.4251 22 37.5001 23.4833 37.5001 25Z" fill="#E8EDFC"/>
<path fill-rule="evenodd" clip-rule="evenodd" d="M37.2918 20.5583C37.2085 19.7166 37.1085 18.8916 36.9751 18.0833C36.0668 17.35 35.1085 16.6416 34.1001 15.9583C33.1918 15.3416 32.2418 14.7416 31.2501 14.175C29.2493 13.0145 27.1627 12.0088 25.0085 11.1666H25.0001C24.5918 11.325 24.1751 11.4916 23.7585 11.675H23.7518C25.4671 12.4072 27.1368 13.2421 28.7518 14.175C29.7435 14.7416 30.6935 15.3416 31.6018 15.9583C32.6101 16.6416 33.5685 17.35 34.4768 18.0833C34.6101 18.8916 34.7101 19.7166 34.7935 20.5583C34.9268 22 35.0018 23.4833 35.0018 25C35.0018 26.5166 34.9268 28 34.7935 29.4416C34.7101 30.2833 34.6101 31.1083 34.4768 31.9166C33.5685 32.65 32.6101 33.3583 31.6018 34.0416C30.6935 34.6583 29.7435 35.2583 28.7518 35.825C27.1351 36.7585 25.4635 37.5934 23.746 38.325H23.7518C24.1685 38.5083 24.5851 38.675 24.9935 38.8333H25.0001C27.1571 37.9912 29.2465 36.9855 31.2501 35.825C32.2418 35.2583 33.1918 34.6583 34.1001 34.0416C35.1085 33.3583 36.0668 32.65 36.9751 31.9166C37.1085 31.1083 37.2085 30.2833 37.2918 29.4416C37.4251 28 37.5001 26.5166 37.5001 25C37.5001 23.4833 37.4251 22 37.2918 20.5583Z" fill="#CAD9FC"/>
<path fill-rule="evenodd" clip-rule="evenodd" d="M37.53 8.83334C37.28 8.82001 37.03 8.80501 36.7709 8.80084C36.7834 8.82668 36.7967 8.85084 36.8084 8.87668C37.0534 8.85334 37.2909 8.84418 37.53 8.83334ZM36.8084 41.125C36.7967 41.1508 36.7834 41.175 36.7709 41.2008C37.0292 41.1967 37.28 41.1817 37.5309 41.1683C37.2909 41.1558 37.0542 41.1467 36.8084 41.125ZM47.0084 11.2083L47.0134 11.2183C47.0359 11.2042 47.0609 11.1933 47.0834 11.18C46.9753 11.1159 46.8625 11.0602 46.7459 11.0133C46.8334 11.0833 46.9267 11.1375 47.0084 11.2083ZM47.0084 38.7917C46.925 38.8625 46.8309 38.9208 46.7459 38.9892C46.8625 38.9425 46.975 38.8867 47.0834 38.8225C47.0609 38.8092 47.0359 38.7983 47.0134 38.7842L47.0084 38.7917ZM1.6667 36.6667C1.6667 37.3297 1.93009 37.9656 2.39893 38.4344C2.86777 38.9033 3.50366 39.1667 4.1667 39.1667C4.60679 39.1644 5.03829 39.0447 5.4167 38.82C5.01355 38.5884 4.68328 38.2485 4.46327 37.8389C4.24325 37.4293 4.14227 36.9663 4.17175 36.5023C4.20124 36.0383 4.36001 35.5918 4.6301 35.2134C4.90018 34.8349 5.27081 34.5396 5.70003 34.3608C5.4017 31.5833 6.56003 28.2975 8.87503 25C6.56003 21.7017 5.4017 18.4208 5.70003 15.6392C5.27081 15.4604 4.90018 15.1651 4.6301 14.7867C4.36001 14.4082 4.20124 13.9617 4.17175 13.4977C4.14227 13.0337 4.24325 12.5707 4.46327 12.1611C4.68328 11.7515 5.01355 11.4116 5.4167 11.18C5.03829 10.9553 4.60679 10.8356 4.1667 10.8333C3.58912 10.8332 3.02929 11.033 2.58237 11.3989C2.13545 11.7648 1.82901 12.2741 1.71511 12.8404C1.60121 13.4066 1.68689 13.9948 1.95759 14.505C2.22829 15.0153 2.66731 15.416 3.20003 15.6392C2.9017 18.4208 4.06003 21.7017 6.37503 25C4.06003 28.2975 2.9017 31.5833 3.20003 34.3608C2.74569 34.5513 2.35776 34.8718 2.08495 35.2821C1.81215 35.6923 1.66664 36.174 1.6667 36.6667Z" fill="white"/>
<path fill-rule="evenodd" clip-rule="evenodd" d="M11.5417 8.04834L11.7083 9.70667C9.64698 9.82341 7.6702 10.5659 6.04167 11.835L4.9425 10.5833C6.83007 9.08134 9.13397 8.19632 11.5417 8.04834Z" fill="white"/>
<path fill-rule="evenodd" clip-rule="evenodd" d="M8.3817 10.405C8.27226 10.4056 8.16379 10.3845 8.06248 10.3432C7.96117 10.3018 7.86899 10.2409 7.79122 10.1639C7.63416 10.0084 7.5453 9.79686 7.5442 9.57584C7.54309 9.35483 7.62983 9.14243 7.78533 8.98537C7.94083 8.8283 8.15235 8.73945 8.37337 8.73834H8.3817C8.60271 8.73834 8.81468 8.82614 8.97096 8.98242C9.12724 9.1387 9.21503 9.35066 9.21503 9.57168C9.21503 9.79269 9.12724 10.0047 8.97096 10.1609C8.81468 10.3172 8.60271 10.405 8.3817 10.405Z" fill="#8C5CB3"/>
<path d="M16.3458 30.7692C16.4468 30.8113 16.5552 30.8331 16.6646 30.8334C16.7741 30.8337 16.8825 30.8124 16.9837 30.7708C17.0849 30.7291 17.1769 30.668 17.2545 30.5908C17.3321 30.5136 17.3937 30.4219 17.4358 30.3208L18.6108 27.5H23.0558L24.2308 30.3208C24.3159 30.5248 24.4786 30.6867 24.683 30.7708C24.8874 30.8548 25.1168 30.8543 25.3208 30.7692C25.5248 30.6841 25.6867 30.5214 25.7707 30.317C25.8548 30.1126 25.8543 29.8832 25.7692 29.6792L21.6025 19.6792C21.5392 19.5273 21.4324 19.3976 21.2955 19.3064C21.1586 19.2152 20.9978 19.1665 20.8333 19.1665C20.6688 19.1665 20.508 19.2152 20.3712 19.3064C20.2343 19.3976 20.1275 19.5273 20.0642 19.6792L15.8975 29.6792C15.8554 29.7802 15.8335 29.8885 15.8333 29.9979C15.833 30.1074 15.8543 30.2158 15.8959 30.317C15.9375 30.4183 15.9987 30.5103 16.0759 30.5879C16.1531 30.6654 16.2448 30.727 16.3458 30.7692ZM20.8333 22.1667L22.3608 25.8333H19.3058L20.8333 22.1667Z" fill="#8C5CB3"/>
<path fill-rule="evenodd" clip-rule="evenodd" d="M27.5001 29.1667C27.2791 29.1667 27.0671 29.2545 26.9108 29.4108C26.7545 29.567 26.6667 29.779 26.6667 30C26.6667 30.221 26.7545 30.433 26.9108 30.5893C27.0671 30.7456 27.2791 30.8334 27.5001 30.8334H32.5001C32.7211 30.8334 32.9331 30.7456 33.0893 30.5893C33.2456 30.433 33.3334 30.221 33.3334 30C33.3334 29.779 33.2456 29.567 33.0893 29.4108C32.9331 29.2545 32.7211 29.1667 32.5001 29.1667H30.8334V20.8334H32.5001C32.7211 20.8334 32.9331 20.7456 33.0893 20.5893C33.2456 20.433 33.3334 20.221 33.3334 20C33.3334 19.779 33.2456 19.567 33.0893 19.4108C32.9331 19.2545 32.7211 19.1667 32.5001 19.1667H27.5001C27.2791 19.1667 27.0671 19.2545 26.9108 19.4108C26.7545 19.567 26.6667 19.779 26.6667 20C26.6667 20.221 26.7545 20.433 26.9108 20.5893C27.0671 20.7456 27.2791 20.8334 27.5001 20.8334H29.1667V29.1667H27.5001Z" fill="#8C5CB3"/>
<path d="M0.833374 36.6667C0.833374 37.5507 1.18456 38.3986 1.80968 39.0237C2.43481 39.6488 3.28265 40 4.16671 40C4.58425 39.9985 4.9977 39.9176 5.38504 39.7617C7.35504 41.27 10.135 42.0567 13.5517 42.0567C14.0667 42.0567 14.6017 42.0325 15.1442 41.9975C17.5642 46.9425 21.0559 50 25 50C28.9442 50 32.4359 46.9425 34.8567 42C35.4 42.035 35.9342 42.0592 36.4492 42.0592C39.8659 42.0592 42.6459 41.2725 44.6159 39.7642C45.0034 39.9192 45.4159 39.9992 45.8334 40C46.5499 39.998 47.2467 39.7651 47.8204 39.3359C48.3942 38.9067 48.8144 38.3041 49.0188 37.6174C49.2231 36.9306 49.2007 36.1963 48.9549 35.5232C48.7092 34.8502 48.253 34.2743 47.6542 33.8808C47.7709 31.1975 46.7334 28.1525 44.6217 25C46.7334 21.8483 47.7709 18.8033 47.6542 16.1192C48.3495 15.6705 48.8525 14.9788 49.0651 14.1791C49.2776 13.3794 49.1845 12.5291 48.8037 11.7945C48.423 11.0598 47.7821 10.4934 47.0062 10.206C46.2302 9.91854 45.375 9.93067 44.6075 10.24C42.3434 8.5075 39 7.74 34.8575 8.01C32.4392 3.06083 28.9459 0 25 0C21.0542 0 17.5634 3.05833 15.1434 8.00417C13.9437 7.91812 12.7389 7.93289 11.5417 8.04833C11.4301 8.05716 11.3216 8.08885 11.2228 8.14143C11.1239 8.19402 11.037 8.26637 10.9674 8.354C10.8977 8.44162 10.8469 8.54263 10.8179 8.65076C10.789 8.75888 10.7826 8.87181 10.7992 8.9825C10.8659 9.425 11.2634 9.74083 11.71 9.70667C12.6086 9.61806 13.5123 9.59411 14.4142 9.635C13.3803 12.2166 12.6476 14.9088 12.2309 17.6583C10.0757 19.3939 8.12509 21.3691 6.41671 23.5458C5.00923 21.5036 4.17211 19.1229 3.99171 16.6492C4.05087 16.6492 4.10671 16.6667 4.16671 16.6667C4.97107 16.6699 5.7497 16.3834 6.36006 15.8595C6.97041 15.3355 7.37165 14.6093 7.49031 13.8138C7.60898 13.0182 7.43714 12.2065 7.00625 11.5273C6.57536 10.848 5.91425 10.3467 5.14394 10.1151C4.37364 9.88349 3.54568 9.93706 2.81165 10.266C2.07761 10.595 1.48661 11.1773 1.14683 11.9064C0.807058 12.6354 0.741243 13.4625 0.961436 14.2362C1.18163 15.0098 1.6731 15.6783 2.34587 16.1192C2.22837 18.8017 3.26671 21.8467 5.37837 25C3.26671 28.1525 2.22837 31.1975 2.34587 33.8808C1.88195 34.1828 1.50067 34.5956 1.23657 35.0821C0.972469 35.5685 0.833886 36.1132 0.833374 36.6667ZM4.16671 11.6667C4.60874 11.6667 5.03266 11.8423 5.34522 12.1548C5.65778 12.4674 5.83337 12.8913 5.83337 13.3333C5.83337 13.7754 5.65778 14.1993 5.34522 14.5118C5.03266 14.8244 4.60874 15 4.16671 15C3.72468 15 3.30076 14.8244 2.9882 14.5118C2.67564 14.1993 2.50004 13.7754 2.50004 13.3333C2.50004 12.8913 2.67564 12.4674 2.9882 12.1548C3.30076 11.8423 3.72468 11.6667 4.16671 11.6667ZM2.50004 36.6667C2.50004 36.2246 2.67564 35.8007 2.9882 35.4882C3.30076 35.1756 3.72468 35 4.16671 35C4.60874 35 5.03266 35.1756 5.34522 35.4882C5.65778 35.8007 5.83337 36.2246 5.83337 36.6667C5.83337 37.1087 5.65778 37.5326 5.34522 37.8452C5.03266 38.1577 4.60874 38.3333 4.16671 38.3333C3.72468 38.3333 3.30076 38.1577 2.9882 37.8452C2.67564 37.5326 2.50004 37.1087 2.50004 36.6667ZM16.1742 9.76667C18.3925 10.0325 20.5784 10.5233 22.6975 11.2308C19.7031 12.5606 16.8581 14.2039 14.21 16.1333C14.647 13.9499 15.3051 11.8167 16.1742 9.76667ZM13.7909 18.5442C15.4904 17.1974 17.2872 15.9782 19.1667 14.8967C21.0418 13.8123 22.993 12.8654 25.005 12.0633C27.015 12.8658 28.965 13.8133 30.8384 14.8967C32.7176 15.9782 34.5142 17.1973 36.2134 18.5442C36.5184 20.6825 36.67 22.84 36.6667 25C36.6683 27.1601 36.5154 29.3175 36.2092 31.4558C34.5097 32.8026 32.7129 34.0218 30.8334 35.1033C28.9599 36.1869 27.0103 37.1333 25 37.935C22.9896 37.1329 21.0401 36.1859 19.1667 35.1017C17.2875 34.0202 15.4909 32.801 13.7917 31.4542C13.1817 27.1719 13.1817 22.8248 13.7917 18.5425L13.7909 18.5442ZM35.7909 16.1333C34.4646 15.1673 33.088 14.2724 31.6667 13.4525C30.2529 12.639 28.7988 11.8975 27.31 11.2308C29.4267 10.5225 31.61 10.0325 33.8267 9.76667C34.6953 11.8168 35.3528 13.95 35.7892 16.1333H35.7909ZM33.8259 40.2333C31.6074 39.9677 29.4217 39.4771 27.3025 38.7692C30.297 37.4394 33.142 35.7961 35.79 33.8667C35.3531 36.0501 34.695 38.1833 33.8259 40.2333ZM38.0875 20.1192C39.7482 21.5908 41.2564 23.226 42.5892 25C41.2569 26.7739 39.7493 28.4091 38.0892 29.8808C38.2525 28.2592 38.3342 26.63 38.3334 25C38.3334 23.37 38.2517 21.7417 38.0875 20.1192ZM18.3334 36.5475C19.7472 37.361 21.2013 38.1025 22.69 38.7692C20.5734 39.4775 18.39 39.9675 16.1734 40.2333C15.3045 38.1832 14.6467 36.05 14.21 33.8667C15.536 34.8327 16.9124 35.7276 18.3334 36.5475ZM25 48.3333C21.87 48.3333 19.0259 45.8508 16.9284 41.8242C19.6902 41.4326 22.3983 40.7269 25 39.7208C27.6028 40.7274 30.312 41.4331 33.075 41.8242C30.9734 45.8508 28.13 48.3333 25 48.3333ZM45.8334 38.3333C45.3913 38.3333 44.9674 38.1577 44.6549 37.8452C44.3423 37.5326 44.1667 37.1087 44.1667 36.6667C44.1667 36.2246 44.3423 35.8007 44.6549 35.4882C44.9674 35.1756 45.3913 35 45.8334 35C46.2754 35 46.6993 35.1756 47.0119 35.4882C47.3244 35.8007 47.5 36.2246 47.5 36.6667C47.5 37.1087 47.3244 37.5326 47.0119 37.8452C46.6993 38.1577 46.2754 38.3333 45.8334 38.3333ZM46.0084 33.3508C45.9492 33.3508 45.8934 33.3333 45.8334 33.3333C44.9493 33.3333 44.1015 33.6845 43.4764 34.3096C42.8512 34.9348 42.5 35.7826 42.5 36.6667C42.5034 37.4117 42.7584 38.1333 43.2242 38.7158C41.4092 39.9133 38.76 40.4825 35.5867 40.3633C36.6199 37.7821 37.3522 35.0905 37.7692 32.3417C39.9246 30.6061 41.8752 28.6305 43.5834 26.4533C44.9904 28.4961 45.8275 30.877 46.0084 33.3508ZM47.5 13.3333C47.5 13.7754 47.3244 14.1993 47.0119 14.5118C46.6993 14.8244 46.2754 15 45.8334 15C45.3913 15 44.9674 14.8244 44.6549 14.5118C44.3423 14.1993 44.1667 13.7754 44.1667 13.3333C44.1667 12.8913 44.3423 12.4674 44.6549 12.1548C44.9674 11.8423 45.3913 11.6667 45.8334 11.6667C46.2754 11.6667 46.6993 11.8423 47.0119 12.1548C47.3244 12.4674 47.5 12.8913 47.5 13.3333ZM43.2242 11.2842C42.7584 11.8659 42.5032 12.5881 42.5 13.3333C42.5 14.2174 42.8512 15.0652 43.4764 15.6904C44.1015 16.3155 44.9493 16.6667 45.8334 16.6667C45.8934 16.6667 45.9492 16.6525 46.0084 16.6492C45.8277 19.1231 44.9906 21.504 43.5834 23.5467C41.875 21.3694 39.924 19.3939 37.7684 17.6583C37.3508 14.9093 36.6176 12.2177 35.5834 9.63667C38.7592 9.51667 41.41 10.0833 43.2242 11.2842ZM25 1.66667C28.13 1.66667 30.9742 4.14917 33.0717 8.17583C30.3113 8.5677 27.6046 9.27338 25.0042 10.2792C22.4014 9.27287 19.6922 8.56691 16.9292 8.175C19.0267 4.14917 21.87 1.66667 25 1.66667ZM11.9167 20.1192C11.5889 23.3648 11.5889 26.6352 11.9167 29.8808C10.2542 28.4098 8.74456 26.7746 7.41087 25C8.74502 23.2258 10.2546 21.5906 11.9167 20.1192ZM6.41671 26.4525C8.12588 28.6291 10.077 30.6043 12.2325 32.34C12.6492 35.09 13.3825 37.7817 14.4167 40.3642C11.245 40.4842 8.59421 39.9133 6.77921 38.7158C7.2438 38.1337 7.49784 37.4115 7.50004 36.6667C7.50004 35.7826 7.14885 34.9348 6.52373 34.3096C5.89861 33.6845 5.05076 33.3333 4.16671 33.3333C4.10671 33.3333 4.05087 33.3483 3.99171 33.3508C4.17239 30.8772 5.00948 28.4965 6.41671 26.4542V26.4525Z" fill="#8C5CB3"/>
</svg>
