<svg width="147" height="33" viewBox="0 0 147 33" fill="none" xmlns="http://www.w3.org/2000/svg">
<path d="M1 9.66927C2.4183 14.3599 6.02244 23.9421 9.09264 24.7463C12.9304 25.7514 15.2664 1 20.7727 1C26.2791 1 25.8619 24.7463 31.5351 24.7463C37.2083 24.7463 38.2094 17.3334 41.7969 17.9616C45.3844 18.5898 45.3009 29.0181 50.557 29.0181C55.813 29.0181 56.5899 24.0962 60.1513 24.7463C62.9045 25.2488 64.7399 30.8371 68.244 31.9078C74.0006 33.6668 73.2497 9.66927 79.9241 9.66927C86.5984 9.66927 84.5961 31.9078 89.1847 31.9078C93.7733 31.9078 93.4396 3.88976 97.7779 4.26668C102.116 4.6436 100.03 17.9616 104.285 17.9616C108.54 17.9616 109.041 9.66927 112.128 9.66927C115.215 9.66927 115.298 24.7463 119.303 24.7463C123.307 24.7463 124.058 17.9616 127.145 17.9616C130.232 17.9616 132.151 29.0181 138.825 29.0181C144.165 29.0181 145.833 26.1702 146 24.7463" stroke="#557534" stroke-width="2" stroke-linecap="round"/>
</svg>
