<svg width="130" height="37" viewBox="0 0 130 37" fill="none" xmlns="http://www.w3.org/2000/svg">
<path d="M1 31.148C1.54765 28.0921 3.30012 21.9803 5.92882 21.9803C9.2147 21.9803 10.783 31.148 15.189 31.148C19.5951 31.148 22.2835 8.07061 28.0338 8.07061C33.7841 8.07061 32.3652 17.6599 36.7713 18.0814C41.1774 18.5029 43.119 8.07061 46.1062 8.07061C49.0933 8.07061 49.6161 12.8125 51.259 13.1287C52.902 13.4448 53.6488 9.75663 55.5158 9.65126C57.3827 9.54588 58.5776 13.1287 60.5939 13.1287C62.6103 13.1287 66.1949 0.588888 70.8997 1.01039C75.6044 1.4319 76.3512 18.0814 82.6243 18.0814C88.8973 18.0814 87.7771 8.07061 91.287 8.07061C94.797 8.07061 93.0047 35.5738 97.4107 35.9953C101.817 36.4169 97.7841 8.07061 104.057 6.59534C108.667 5.51112 108.239 19.2405 113.467 19.2405C118.694 19.2405 121.084 3.85556 129 3.85556" stroke="#B3615C" stroke-width="2" stroke-linecap="round"/>
</svg>
