<svg width="50" height="50" viewBox="0 0 50 50" fill="none" xmlns="http://www.w3.org/2000/svg">
<path fill-rule="evenodd" clip-rule="evenodd" d="M16.2359 15.6845C17.1363 15.6845 17.8684 16.4172 17.8684 17.3175C17.8684 18.2178 17.1363 18.9505 16.2359 18.9505C15.3354 18.9505 14.6033 18.2178 14.6033 17.3175C14.6033 16.4172 15.3355 15.6845 16.2359 15.6845ZM16.2359 14.9036C14.9048 14.9036 13.822 15.9864 13.822 17.3175C13.822 18.6479 14.9052 19.7318 16.2359 19.7318C17.5665 19.7318 18.6497 18.648 18.6497 17.3175C18.6497 15.9864 17.5669 14.9036 16.2359 14.9036ZM17.4291 7.60234C17.459 7.56102 17.4805 7.51421 17.4923 7.46458C17.504 7.41496 17.5059 7.3635 17.4977 7.31315C17.4896 7.2628 17.4716 7.21455 17.4448 7.17117C17.418 7.12779 17.3828 7.09013 17.3414 7.06035C17.1679 6.93564 16.9253 6.97412 16.8004 7.14795L8.27874 19.0103C8.24896 19.0515 8.22763 19.0983 8.21594 19.1479C8.20426 19.1974 8.20247 19.2488 8.21066 19.299C8.21885 19.3493 8.23686 19.3974 8.26368 19.4407C8.29049 19.484 8.32557 19.5216 8.36692 19.5513C8.40814 19.581 8.45483 19.6024 8.50432 19.6141C8.55381 19.6259 8.60512 19.6277 8.65532 19.6196C8.70552 19.6115 8.75363 19.5935 8.79689 19.5668C8.84016 19.54 8.87772 19.505 8.90745 19.4638L17.4291 7.60234ZM9.46467 10.8397C8.56458 10.8397 7.83215 10.1073 7.83215 9.20722C7.83215 8.30713 8.56458 7.57471 9.46467 7.57471C10.3651 7.57471 11.0972 8.30693 11.0972 9.20722C11.0973 10.1075 10.3651 10.8397 9.46467 10.8397ZM9.46467 6.79287C10.7952 6.79287 11.879 7.87656 11.879 9.20713C11.879 10.5383 10.7957 11.621 9.46467 11.621C8.13372 11.6211 7.05081 10.5383 7.05081 9.20722C7.05081 7.87666 8.13401 6.79287 9.46467 6.79287ZM2.12512 3.67519V22.85C2.12512 23.8384 2.92922 24.6419 3.91751 24.6419H16.5359L28.8237 8.62451C29.2822 8.02685 29.9148 7.68476 30.6656 7.62588L40.0545 6.89004L36.0843 2.47598C35.7292 2.08125 35.2827 1.88271 34.7519 1.88271H3.91751C2.92913 1.88281 2.12512 2.68691 2.12512 3.67519ZM39.0495 12.5818C39.2028 12.3823 39.4 12.2208 39.6258 12.1098C39.8516 11.9987 40.1 11.9412 40.3516 11.9417C41.6871 11.9417 42.4623 13.5172 41.6496 14.5768C41.1049 15.2868 40.0623 15.4241 39.3521 14.8798C38.6418 14.3354 38.5047 13.2915 39.0495 12.5818Z" fill="#E0BAFF"/>
<path fill-rule="evenodd" clip-rule="evenodd" d="M31.3468 26.8637L29.7948 24.6254L32.3583 25.5435L31.3468 26.8637ZM36.4365 25.3449L28.0323 22.335L28.0315 22.3372C27.9152 22.2957 27.7907 22.2825 27.6684 22.2986C27.546 22.3147 27.4292 22.3597 27.3276 22.4298C26.9733 22.6739 26.8844 23.1595 27.129 23.5137L32.2152 30.8496C32.2731 30.9339 32.347 31.0059 32.4328 31.0616C32.5186 31.1172 32.6146 31.1553 32.7152 31.1738C32.8158 31.1922 32.919 31.1906 33.019 31.1691C33.1189 31.1475 33.2136 31.1064 33.2977 31.0481C33.6515 30.8035 33.7404 30.3185 33.4962 29.9646L32.2796 28.2091L33.9006 26.0946L35.9123 26.8155C36.3182 26.9611 36.7646 26.7487 36.9101 26.3425C36.9795 26.1474 36.9686 25.9327 36.8798 25.7457C36.791 25.5586 36.6316 25.4145 36.4365 25.3449ZM31.9728 32.7062C32.2344 32.3644 32.1681 31.8751 31.8263 31.6135C31.4845 31.3527 30.9952 31.4182 30.7336 31.76L28.669 34.4524L26.5338 32.8144L27.8596 31.0859C27.9826 30.9214 28.0357 30.715 28.0074 30.5116C27.9791 30.3082 27.8716 30.1241 27.7084 29.9995C27.5451 29.8748 27.3393 29.8196 27.1356 29.8459C26.9318 29.8721 26.7467 29.9778 26.6204 30.1397L25.297 31.8653L23.1614 30.2276L25.2279 27.5333C25.489 27.1915 25.4232 26.7022 25.0814 26.4406C24.7391 26.1799 24.2499 26.2453 23.9887 26.5871L21.449 29.8983C21.3236 30.0627 21.2685 30.2701 21.296 30.475C21.3235 30.6799 21.4312 30.8655 21.5955 30.991L28.3409 36.1642C28.6827 36.4258 29.172 36.3595 29.4327 36.0177L31.9728 32.7062ZM25.2412 38.9218L24.4466 39.9583L18.9385 35.7336L19.735 34.6953C20.1629 34.137 21.0031 34.0228 21.5684 34.4562C21.5684 34.4562 25.0012 37.0894 25.0017 37.0894C25.5595 37.5168 25.6747 38.3565 25.2412 38.9218ZM25.9479 35.8497C27.1507 36.7724 27.4077 38.6593 26.48 39.8685L25.2104 41.5235C25.1483 41.605 25.0708 41.6734 24.9823 41.7249C24.8937 41.7763 24.7959 41.8098 24.6944 41.8234C24.5929 41.837 24.4897 41.8305 24.3908 41.8042C24.2918 41.7778 24.199 41.7323 24.1177 41.67L17.3728 36.4973C17.0305 36.2365 16.9651 35.7474 17.2263 35.4046L18.4958 33.749C19.4319 32.5297 21.2971 32.2832 22.5141 33.217C22.5156 33.218 25.9479 35.8497 25.9479 35.8497ZM40.8303 21.1575C41.091 20.8157 41.0256 20.3265 40.6838 20.0653C40.341 19.8042 39.8514 19.869 39.5906 20.2118L37.5265 22.9034L31.3984 18.2043C31.0566 17.9427 30.5673 18.0081 30.3057 18.3498C30.0449 18.6926 30.1104 19.1817 30.4522 19.4425L37.1976 24.6151C37.2789 24.6774 37.3717 24.723 37.4707 24.7494C37.5696 24.7757 37.6728 24.7823 37.7743 24.7687C37.8758 24.7551 37.9737 24.7216 38.0622 24.6701C38.1507 24.6186 38.2282 24.5501 38.2903 24.4687L40.8303 21.1575ZM41.3398 14.3389C40.9266 14.8783 40.1292 14.9828 39.5898 14.5696C39.0508 14.1564 38.9462 13.3586 39.3595 12.8196C39.4764 12.6677 39.6267 12.5447 39.7987 12.4602C39.9708 12.3757 40.16 12.3319 40.3517 12.3322C41.3596 12.3323 41.9598 13.5313 41.3398 14.3389ZM42.0607 11.3497C40.8312 10.4062 39.0636 10.639 38.1202 11.8685C37.1768 13.0988 37.409 14.8664 38.6399 15.8098C39.8537 16.7412 41.6493 16.503 42.5799 15.2901C43.5233 14.0606 43.2902 12.2932 42.0607 11.3497ZM47.1914 22.7159C47.4471 22.3819 47.5342 22.0185 47.4573 21.6058L45.5626 11.4133C45.3019 10.0138 44.8906 9.20908 44.1429 8.63594C43.2658 7.96201 42.1556 7.90078 41.092 7.98457L30.7568 8.79394C30.338 8.82617 30.0101 9.00488 29.7539 9.33799L10.9858 33.802C10.515 34.4152 10.6311 35.2969 11.2447 35.7677L26.4578 47.4389C27.071 47.9092 27.9527 47.7932 28.423 47.18L47.1914 22.7159ZM3.91751 24.2513C3.14456 24.2513 2.51575 23.6225 2.51575 22.85V3.67519C2.51575 2.90273 3.14456 2.27344 3.91751 2.27344H34.752C35.1721 2.27344 35.5129 2.425 35.794 2.7373L39.2346 6.5626L30.6351 7.23652C29.7737 7.30381 29.0399 7.70137 28.5138 8.38682L16.3432 24.2513H3.91751ZM48.9931 21.3206L47.0985 11.1281C46.8626 9.86221 46.4407 8.4292 45.0937 7.3959C43.8274 6.42392 42.4297 6.33408 41.1993 6.41054L36.9563 1.69248C36.3782 1.0499 35.6162 0.711327 34.7521 0.711327H3.91751C2.28313 0.711327 0.953247 2.04121 0.953247 3.67519V22.85C0.953247 24.4835 2.28313 25.8139 3.91751 25.8139H15.1446L9.74563 32.8518C8.7511 34.1485 8.99661 36.0128 10.2934 37.0078L25.5066 48.679C26.023 49.076 26.6563 49.2909 27.3077 49.2902C28.1982 49.2902 29.0804 48.8908 29.6631 48.1308L48.4307 23.6672V23.6662C48.9572 22.9809 49.1516 22.17 48.9931 21.3206ZM8.22278 9.20722C8.22278 8.52275 8.7802 7.96533 9.46467 7.96533C10.1496 7.96533 10.7066 8.52275 10.7066 9.20722C10.7066 9.8918 10.1496 10.4491 9.46467 10.4491C8.7802 10.4491 8.22278 9.8918 8.22278 9.20722ZM12.2697 9.20722C12.2697 10.7541 11.0112 12.0117 9.46467 12.0117C7.91829 12.0117 6.66018 10.7541 6.66018 9.20722C6.66018 7.66123 7.91829 6.40234 9.46467 6.40234C11.0112 6.40224 12.2697 7.66123 12.2697 9.20722ZM17.7463 7.83027L9.22473 19.6917C8.97366 20.0399 8.48723 20.1201 8.1385 19.8682C7.78977 19.6171 7.71008 19.1311 7.96165 18.7824L16.4833 6.92012C16.7344 6.57138 17.2208 6.49258 17.5696 6.74326C17.9187 6.99424 17.9979 7.48066 17.7463 7.83027ZM16.2359 18.5599C15.5509 18.5599 14.994 18.002 14.994 17.3175C14.994 16.6329 15.5509 16.0751 16.2359 16.0751C16.9208 16.0751 17.4778 16.6329 17.4778 17.3175C17.4779 18.002 16.9208 18.5599 16.2359 18.5599ZM16.2359 14.513C17.7823 14.513 19.0404 15.7706 19.0404 17.3175C19.0404 18.8635 17.7823 20.1225 16.2359 20.1225C14.6895 20.1225 13.4314 18.8635 13.4314 17.3175C13.4314 15.7706 14.6895 14.513 16.2359 14.513Z" fill="#8C5CB3"/>
</svg>
