<svg width="416" height="439" viewBox="0 0 416 439" fill="none" xmlns="http://www.w3.org/2000/svg">
<g opacity="0.5" filter="url(#filter0_dd_244_174)">
<rect x="12" width="384" height="407" rx="15" fill="white"/>
<rect x="12.25" y="0.25" width="383.5" height="406.5" rx="14.75" stroke="#D6D6D6" stroke-width="0.5"/>
</g>
<path d="M38.3232 33.192C38.3232 33.7573 38.1899 34.2907 37.9232 34.792C37.6565 35.2933 37.2299 35.704 36.6432 36.024C36.0565 36.3333 35.3045 36.488 34.3872 36.488H32.3712V41H30.5472V29.88H34.3872C35.2405 29.88 35.9605 30.0293 36.5472 30.328C37.1445 30.616 37.5872 31.0107 37.8752 31.512C38.1739 32.0133 38.3232 32.5733 38.3232 33.192ZM34.3872 35C35.0805 35 35.5979 34.8453 35.9392 34.536C36.2805 34.216 36.4512 33.768 36.4512 33.192C36.4512 31.976 35.7632 31.368 34.3872 31.368H32.3712V35H34.3872ZM41.8068 33.464C42.0735 33.016 42.4255 32.6693 42.8628 32.424C43.3108 32.168 43.8388 32.04 44.4468 32.04V33.928H43.9828C43.2681 33.928 42.7241 34.1093 42.3508 34.472C41.9881 34.8347 41.8068 35.464 41.8068 36.36V41H39.9828V32.184H41.8068V33.464ZM46.9714 31.016C46.6408 31.016 46.3634 30.904 46.1394 30.68C45.9154 30.456 45.8034 30.1787 45.8034 29.848C45.8034 29.5173 45.9154 29.24 46.1394 29.016C46.3634 28.792 46.6408 28.68 46.9714 28.68C47.2914 28.68 47.5634 28.792 47.7874 29.016C48.0114 29.24 48.1234 29.5173 48.1234 29.848C48.1234 30.1787 48.0114 30.456 47.7874 30.68C47.5634 30.904 47.2914 31.016 46.9714 31.016ZM47.8674 32.184V41H46.0434V32.184H47.8674ZM49.5742 36.584C49.5742 35.6773 49.7555 34.8827 50.1182 34.2C50.4915 33.5067 51.0035 32.9733 51.6542 32.6C52.3049 32.2267 53.0515 32.04 53.8942 32.04C54.9609 32.04 55.8409 32.296 56.5342 32.808C57.2382 33.3093 57.7129 34.0293 57.9582 34.968H55.9902C55.8302 34.5307 55.5742 34.1893 55.2222 33.944C54.8702 33.6987 54.4275 33.576 53.8942 33.576C53.1475 33.576 52.5502 33.8427 52.1022 34.376C51.6649 34.8987 51.4462 35.6347 51.4462 36.584C51.4462 37.5333 51.6649 38.2747 52.1022 38.808C52.5502 39.3413 53.1475 39.608 53.8942 39.608C54.9502 39.608 55.6489 39.144 55.9902 38.216H57.9582C57.7022 39.112 57.2222 39.8267 56.5182 40.36C55.8142 40.8827 54.9395 41.144 53.8942 41.144C53.0515 41.144 52.3049 40.9573 51.6542 40.584C51.0035 40.2 50.4915 39.6667 50.1182 38.984C49.7555 38.2907 49.5742 37.4907 49.5742 36.584ZM67.7759 36.376C67.7759 36.7067 67.7546 37.0053 67.7119 37.272H60.9759C61.0293 37.976 61.2906 38.5413 61.7599 38.968C62.2293 39.3947 62.8053 39.608 63.4879 39.608C64.4693 39.608 65.1626 39.1973 65.5679 38.376H67.5359C67.2693 39.1867 66.7839 39.8533 66.0799 40.376C65.3866 40.888 64.5226 41.144 63.4879 41.144C62.6453 41.144 61.8879 40.9573 61.2159 40.584C60.5546 40.2 60.0319 39.6667 59.6479 38.984C59.2746 38.2907 59.0879 37.4907 59.0879 36.584C59.0879 35.6773 59.2693 34.8827 59.6319 34.2C60.0053 33.5067 60.5226 32.9733 61.1839 32.6C61.8559 32.2267 62.6239 32.04 63.4879 32.04C64.3199 32.04 65.0613 32.2213 65.7119 32.584C66.3626 32.9467 66.8693 33.4587 67.2319 34.12C67.5946 34.7707 67.7759 35.5227 67.7759 36.376ZM65.8719 35.8C65.8613 35.128 65.6213 34.5893 65.1519 34.184C64.6826 33.7787 64.1013 33.576 63.4079 33.576C62.7786 33.576 62.2399 33.7787 61.7919 34.184C61.3439 34.5787 61.0773 35.1173 60.9919 35.8H65.8719ZM78.1272 32.04C78.7992 32.04 79.3965 32.184 79.9192 32.472C80.4525 32.76 80.8685 33.1867 81.1672 33.752C81.4765 34.3173 81.6312 35 81.6312 35.8V41H79.8232V36.072C79.8232 35.2827 79.6259 34.68 79.2312 34.264C78.8365 33.8373 78.2979 33.624 77.6152 33.624C76.9325 33.624 76.3885 33.8373 75.9832 34.264C75.5885 34.68 75.3912 35.2827 75.3912 36.072V41H73.5672V29.16H75.3912V33.208C75.7005 32.8347 76.0899 32.5467 76.5592 32.344C77.0392 32.1413 77.5619 32.04 78.1272 32.04ZM84.8058 31.016C84.4751 31.016 84.1978 30.904 83.9738 30.68C83.7498 30.456 83.6378 30.1787 83.6378 29.848C83.6378 29.5173 83.7498 29.24 83.9738 29.016C84.1978 28.792 84.4751 28.68 84.8058 28.68C85.1258 28.68 85.3978 28.792 85.6218 29.016C85.8458 29.24 85.9578 29.5173 85.9578 29.848C85.9578 30.1787 85.8458 30.456 85.6218 30.68C85.3978 30.904 85.1258 31.016 84.8058 31.016ZM85.7018 32.184V41H83.8778V32.184H85.7018ZM91.2166 41.144C90.5232 41.144 89.8992 41.0213 89.3446 40.776C88.8006 40.52 88.3686 40.1787 88.0486 39.752C87.7286 39.3147 87.5579 38.8293 87.5366 38.296H89.4246C89.4566 38.6693 89.6326 38.984 89.9526 39.24C90.2832 39.4853 90.6939 39.608 91.1846 39.608C91.6966 39.608 92.0912 39.512 92.3686 39.32C92.6566 39.1173 92.8006 38.8613 92.8006 38.552C92.8006 38.2213 92.6406 37.976 92.3206 37.816C92.0112 37.656 91.5152 37.48 90.8326 37.288C90.1712 37.1067 89.6326 36.9307 89.2166 36.76C88.8006 36.5893 88.4379 36.328 88.1286 35.976C87.8299 35.624 87.6806 35.16 87.6806 34.584C87.6806 34.1147 87.8192 33.688 88.0966 33.304C88.3739 32.9093 88.7686 32.6 89.2806 32.376C89.8032 32.152 90.4006 32.04 91.0726 32.04C92.0752 32.04 92.8806 32.296 93.4886 32.808C94.1072 33.3093 94.4379 33.9973 94.4806 34.872H92.6566C92.6246 34.4773 92.4646 34.1627 92.1766 33.928C91.8886 33.6933 91.4992 33.576 91.0086 33.576C90.5286 33.576 90.1606 33.6667 89.9046 33.848C89.6486 34.0293 89.5206 34.2693 89.5206 34.568C89.5206 34.8027 89.6059 35 89.7766 35.16C89.9472 35.32 90.1552 35.448 90.4006 35.544C90.6459 35.6293 91.0086 35.7413 91.4886 35.88C92.1286 36.0507 92.6512 36.2267 93.0566 36.408C93.4726 36.5787 93.8299 36.8347 94.1286 37.176C94.4272 37.5173 94.5819 37.9707 94.5926 38.536C94.5926 39.0373 94.4539 39.4853 94.1766 39.88C93.8992 40.2747 93.5046 40.584 92.9926 40.808C92.4912 41.032 91.8992 41.144 91.2166 41.144ZM98.6114 33.672V38.552C98.6114 38.8827 98.6861 39.1227 98.8354 39.272C98.9954 39.4107 99.2621 39.48 99.6354 39.48H100.755V41H99.3154C98.4941 41 97.8648 40.808 97.4274 40.424C96.9901 40.04 96.7714 39.416 96.7714 38.552V33.672H95.7314V32.184H96.7714V29.992H98.6114V32.184H100.755V33.672H98.6114ZM106.181 41.144C105.349 41.144 104.597 40.9573 103.925 40.584C103.253 40.2 102.725 39.6667 102.341 38.984C101.957 38.2907 101.765 37.4907 101.765 36.584C101.765 35.688 101.962 34.8933 102.357 34.2C102.751 33.5067 103.29 32.9733 103.973 32.6C104.655 32.2267 105.418 32.04 106.261 32.04C107.103 32.04 107.866 32.2267 108.549 32.6C109.231 32.9733 109.77 33.5067 110.165 34.2C110.559 34.8933 110.757 35.688 110.757 36.584C110.757 37.48 110.554 38.2747 110.149 38.968C109.743 39.6613 109.189 40.2 108.485 40.584C107.791 40.9573 107.023 41.144 106.181 41.144ZM106.181 39.56C106.65 39.56 107.087 39.448 107.493 39.224C107.909 39 108.245 38.664 108.501 38.216C108.757 37.768 108.885 37.224 108.885 36.584C108.885 35.944 108.762 35.4053 108.517 34.968C108.271 34.52 107.946 34.184 107.541 33.96C107.135 33.736 106.698 33.624 106.229 33.624C105.759 33.624 105.322 33.736 104.917 33.96C104.522 34.184 104.207 34.52 103.973 34.968C103.738 35.4053 103.621 35.944 103.621 36.584C103.621 37.5333 103.861 38.2693 104.341 38.792C104.831 39.304 105.445 39.56 106.181 39.56ZM114.304 33.464C114.57 33.016 114.922 32.6693 115.36 32.424C115.808 32.168 116.336 32.04 116.944 32.04V33.928H116.48C115.765 33.928 115.221 34.1093 114.848 34.472C114.485 34.8347 114.304 35.464 114.304 36.36V41H112.48V32.184H114.304V33.464ZM126.476 32.184L121.068 45.144H119.18L120.972 40.856L117.5 32.184H119.532L122.012 38.904L124.588 32.184H126.476Z" fill="black"/>
<path d="M69.7055 79.312V89H68.4315V81.776L65.2115 89H64.3155L61.0815 81.762V89H59.8075V79.312H61.1795L64.7635 87.32L68.3475 79.312H69.7055ZM75.2121 89.126C74.4934 89.126 73.8401 88.9627 73.2521 88.636C72.6734 88.3093 72.2161 87.8473 71.8801 87.25C71.5534 86.6433 71.3901 85.9433 71.3901 85.15C71.3901 84.366 71.5581 83.6753 71.8941 83.078C72.2394 82.4713 72.7061 82.0093 73.2941 81.692C73.8821 81.3653 74.5401 81.202 75.2681 81.202C75.9961 81.202 76.6541 81.3653 77.2421 81.692C77.8301 82.0093 78.2921 82.4667 78.6281 83.064C78.9734 83.6613 79.1461 84.3567 79.1461 85.15C79.1461 85.9433 78.9688 86.6433 78.6141 87.25C78.2688 87.8473 77.7974 88.3093 77.2001 88.636C76.6028 88.9627 75.9401 89.126 75.2121 89.126ZM75.2121 88.006C75.6694 88.006 76.0988 87.8987 76.5001 87.684C76.9014 87.4693 77.2234 87.1473 77.4661 86.718C77.7181 86.2887 77.8441 85.766 77.8441 85.15C77.8441 84.534 77.7228 84.0113 77.4801 83.582C77.2374 83.1527 76.9201 82.8353 76.5281 82.63C76.1361 82.4153 75.7114 82.308 75.2541 82.308C74.7874 82.308 74.3581 82.4153 73.9661 82.63C73.5834 82.8353 73.2754 83.1527 73.0421 83.582C72.8088 84.0113 72.6921 84.534 72.6921 85.15C72.6921 85.7753 72.8041 86.3027 73.0281 86.732C73.2614 87.1613 73.5694 87.4833 73.9521 87.698C74.3348 87.9033 74.7548 88.006 75.2121 88.006ZM84.5592 81.188C85.4925 81.188 86.2485 81.4727 86.8272 82.042C87.4058 82.602 87.6952 83.414 87.6952 84.478V89H86.4352V84.66C86.4352 83.8947 86.2438 83.3113 85.8612 82.91C85.4785 82.4993 84.9558 82.294 84.2932 82.294C83.6212 82.294 83.0845 82.504 82.6832 82.924C82.2912 83.344 82.0952 83.9553 82.0952 84.758V89H80.8212V81.328H82.0952V82.42C82.3472 82.028 82.6878 81.7247 83.1172 81.51C83.5558 81.2953 84.0365 81.188 84.5592 81.188ZM91.3302 82.378V86.9C91.3302 87.2733 91.4096 87.5393 91.5682 87.698C91.7269 87.8473 92.0022 87.922 92.3942 87.922H93.3322V89H92.1842C91.4749 89 90.9429 88.8367 90.5882 88.51C90.2336 88.1833 90.0562 87.6467 90.0562 86.9V82.378H89.0622V81.328H90.0562V79.396H91.3302V81.328H93.3322V82.378H91.3302ZM98.6839 81.188C99.2625 81.188 99.7852 81.314 100.252 81.566C100.719 81.8087 101.083 82.1773 101.344 82.672C101.615 83.1667 101.75 83.7687 101.75 84.478V89H100.49V84.66C100.49 83.8947 100.299 83.3113 99.9159 82.91C99.5332 82.4993 99.0105 82.294 98.3479 82.294C97.6759 82.294 97.1392 82.504 96.7379 82.924C96.3459 83.344 96.1499 83.9553 96.1499 84.758V89H94.8759V78.64H96.1499V82.42C96.4019 82.028 96.7472 81.7247 97.1859 81.51C97.6339 81.2953 98.1332 81.188 98.6839 81.188Z" fill="black"/>
<path d="M131.808 81.426C131.873 80.5673 132.204 79.8953 132.802 79.41C133.399 78.9247 134.174 78.682 135.126 78.682C135.76 78.682 136.306 78.7987 136.764 79.032C137.23 79.256 137.58 79.564 137.814 79.956C138.056 80.348 138.178 80.7913 138.178 81.286C138.178 81.8647 138.01 82.364 137.674 82.784C137.347 83.204 136.918 83.4747 136.386 83.596V83.666C136.992 83.8153 137.473 84.1093 137.828 84.548C138.182 84.9867 138.36 85.5607 138.36 86.27C138.36 86.802 138.238 87.2827 137.996 87.712C137.753 88.132 137.389 88.4633 136.904 88.706C136.418 88.9487 135.835 89.07 135.154 89.07C134.164 89.07 133.352 88.8133 132.718 88.3C132.083 87.7773 131.728 87.04 131.654 86.088H132.886C132.951 86.648 133.18 87.1053 133.572 87.46C133.964 87.8147 134.486 87.992 135.14 87.992C135.793 87.992 136.288 87.824 136.624 87.488C136.969 87.1427 137.142 86.6993 137.142 86.158C137.142 85.458 136.908 84.954 136.442 84.646C135.975 84.338 135.27 84.184 134.328 84.184H134.006V83.12H134.342C135.2 83.1107 135.849 82.9707 136.288 82.7C136.726 82.42 136.946 81.9907 136.946 81.412C136.946 80.9173 136.782 80.5207 136.456 80.222C136.138 79.9233 135.681 79.774 135.084 79.774C134.505 79.774 134.038 79.9233 133.684 80.222C133.329 80.5207 133.119 80.922 133.054 81.426H131.808ZM153.92 79.312V89H152.646V81.776L149.426 89H148.53L145.296 81.762V89H144.022V79.312H145.394L148.978 87.32L152.562 79.312H153.92ZM159.427 89.126C158.708 89.126 158.055 88.9627 157.467 88.636C156.888 88.3093 156.431 87.8473 156.095 87.25C155.768 86.6433 155.605 85.9433 155.605 85.15C155.605 84.366 155.773 83.6753 156.109 83.078C156.454 82.4713 156.921 82.0093 157.509 81.692C158.097 81.3653 158.755 81.202 159.483 81.202C160.211 81.202 160.869 81.3653 161.457 81.692C162.045 82.0093 162.507 82.4667 162.843 83.064C163.188 83.6613 163.361 84.3567 163.361 85.15C163.361 85.9433 163.184 86.6433 162.829 87.25C162.484 87.8473 162.012 88.3093 161.415 88.636C160.818 88.9627 160.155 89.126 159.427 89.126ZM159.427 88.006C159.884 88.006 160.314 87.8987 160.715 87.684C161.116 87.4693 161.438 87.1473 161.681 86.718C161.933 86.2887 162.059 85.766 162.059 85.15C162.059 84.534 161.938 84.0113 161.695 83.582C161.452 83.1527 161.135 82.8353 160.743 82.63C160.351 82.4153 159.926 82.308 159.469 82.308C159.002 82.308 158.573 82.4153 158.181 82.63C157.798 82.8353 157.49 83.1527 157.257 83.582C157.024 84.0113 156.907 84.534 156.907 85.15C156.907 85.7753 157.019 86.3027 157.243 86.732C157.476 87.1613 157.784 87.4833 158.167 87.698C158.55 87.9033 158.97 88.006 159.427 88.006ZM168.774 81.188C169.707 81.188 170.463 81.4727 171.042 82.042C171.621 82.602 171.91 83.414 171.91 84.478V89H170.65V84.66C170.65 83.8947 170.459 83.3113 170.076 82.91C169.693 82.4993 169.171 82.294 168.508 82.294C167.836 82.294 167.299 82.504 166.898 82.924C166.506 83.344 166.31 83.9553 166.31 84.758V89H165.036V81.328H166.31V82.42C166.562 82.028 166.903 81.7247 167.332 81.51C167.771 81.2953 168.251 81.188 168.774 81.188ZM175.545 82.378V86.9C175.545 87.2733 175.624 87.5393 175.783 87.698C175.942 87.8473 176.217 87.922 176.609 87.922H177.547V89H176.399C175.69 89 175.158 88.8367 174.803 88.51C174.448 88.1833 174.271 87.6467 174.271 86.9V82.378H173.277V81.328H174.271V79.396H175.545V81.328H177.547V82.378H175.545ZM182.899 81.188C183.477 81.188 184 81.314 184.467 81.566C184.933 81.8087 185.297 82.1773 185.559 82.672C185.829 83.1667 185.965 83.7687 185.965 84.478V89H184.705V84.66C184.705 83.8947 184.513 83.3113 184.131 82.91C183.748 82.4993 183.225 82.294 182.563 82.294C181.891 82.294 181.354 82.504 180.953 82.924C180.561 83.344 180.365 83.9553 180.365 84.758V89H179.091V78.64H180.365V82.42C180.617 82.028 180.962 81.7247 181.401 81.51C181.849 81.2953 182.348 81.188 182.899 81.188ZM190.762 89.126C190.174 89.126 189.646 89.028 189.18 88.832C188.713 88.6267 188.344 88.3467 188.074 87.992C187.803 87.628 187.654 87.2127 187.626 86.746H188.942C188.979 87.1287 189.156 87.4413 189.474 87.684C189.8 87.9267 190.225 88.048 190.748 88.048C191.233 88.048 191.616 87.9407 191.896 87.726C192.176 87.5113 192.316 87.2407 192.316 86.914C192.316 86.578 192.166 86.3307 191.868 86.172C191.569 86.004 191.107 85.8407 190.482 85.682C189.912 85.5327 189.446 85.3833 189.082 85.234C188.727 85.0753 188.419 84.8467 188.158 84.548C187.906 84.24 187.78 83.8387 187.78 83.344C187.78 82.952 187.896 82.5927 188.13 82.266C188.363 81.9393 188.694 81.6827 189.124 81.496C189.553 81.3 190.043 81.202 190.594 81.202C191.443 81.202 192.129 81.4167 192.652 81.846C193.174 82.2753 193.454 82.8633 193.492 83.61H192.218C192.19 83.2087 192.026 82.8867 191.728 82.644C191.438 82.4013 191.046 82.28 190.552 82.28C190.094 82.28 189.73 82.378 189.46 82.574C189.189 82.77 189.054 83.0267 189.054 83.344C189.054 83.596 189.133 83.806 189.292 83.974C189.46 84.1327 189.665 84.2633 189.908 84.366C190.16 84.4593 190.505 84.5667 190.944 84.688C191.494 84.8373 191.942 84.9867 192.288 85.136C192.633 85.276 192.927 85.4907 193.17 85.78C193.422 86.0693 193.552 86.4473 193.562 86.914C193.562 87.334 193.445 87.712 193.212 88.048C192.978 88.384 192.647 88.65 192.218 88.846C191.798 89.0327 191.312 89.126 190.762 89.126Z" fill="black"/>
<rect x="204.5" y="69" width="83.75" height="30" rx="6" fill="#EAD0FF" fill-opacity="0.8"/>
<path d="M220.906 81.286C220.701 80.25 220.062 79.732 218.988 79.732C218.158 79.732 217.537 80.054 217.126 80.698C216.716 81.3327 216.515 82.3827 216.524 83.848C216.739 83.3627 217.094 82.9847 217.588 82.714C218.092 82.434 218.652 82.294 219.268 82.294C220.23 82.294 220.995 82.5927 221.564 83.19C222.143 83.7873 222.432 84.6133 222.432 85.668C222.432 86.3027 222.306 86.872 222.054 87.376C221.812 87.88 221.438 88.2813 220.934 88.58C220.44 88.8787 219.838 89.028 219.128 89.028C218.167 89.028 217.416 88.8133 216.874 88.384C216.333 87.9547 215.955 87.362 215.74 86.606C215.526 85.85 215.418 84.9167 215.418 83.806C215.418 80.3807 216.613 78.668 219.002 78.668C219.917 78.668 220.636 78.9153 221.158 79.41C221.681 79.9047 221.989 80.53 222.082 81.286H220.906ZM219.002 83.372C218.601 83.372 218.223 83.456 217.868 83.624C217.514 83.7827 217.224 84.03 217 84.366C216.786 84.6927 216.678 85.094 216.678 85.57C216.678 86.2793 216.884 86.858 217.294 87.306C217.705 87.7447 218.293 87.964 219.058 87.964C219.712 87.964 220.23 87.7633 220.612 87.362C221.004 86.9513 221.2 86.4007 221.2 85.71C221.2 84.982 221.014 84.4127 220.64 84.002C220.267 83.582 219.721 83.372 219.002 83.372ZM237.992 79.312V89H236.718V81.776L233.498 89H232.602L229.368 81.762V89H228.094V79.312H229.466L233.05 87.32L236.634 79.312H237.992ZM243.498 89.126C242.78 89.126 242.126 88.9627 241.538 88.636C240.96 88.3093 240.502 87.8473 240.166 87.25C239.84 86.6433 239.676 85.9433 239.676 85.15C239.676 84.366 239.844 83.6753 240.18 83.078C240.526 82.4713 240.992 82.0093 241.58 81.692C242.168 81.3653 242.826 81.202 243.554 81.202C244.282 81.202 244.94 81.3653 245.528 81.692C246.116 82.0093 246.578 82.4667 246.914 83.064C247.26 83.6613 247.432 84.3567 247.432 85.15C247.432 85.9433 247.255 86.6433 246.9 87.25C246.555 87.8473 246.084 88.3093 245.486 88.636C244.889 88.9627 244.226 89.126 243.498 89.126ZM243.498 88.006C243.956 88.006 244.385 87.8987 244.786 87.684C245.188 87.4693 245.51 87.1473 245.752 86.718C246.004 86.2887 246.13 85.766 246.13 85.15C246.13 84.534 246.009 84.0113 245.766 83.582C245.524 83.1527 245.206 82.8353 244.814 82.63C244.422 82.4153 243.998 82.308 243.54 82.308C243.074 82.308 242.644 82.4153 242.252 82.63C241.87 82.8353 241.562 83.1527 241.328 83.582C241.095 84.0113 240.978 84.534 240.978 85.15C240.978 85.7753 241.09 86.3027 241.314 86.732C241.548 87.1613 241.856 87.4833 242.238 87.698C242.621 87.9033 243.041 88.006 243.498 88.006ZM252.845 81.188C253.779 81.188 254.535 81.4727 255.113 82.042C255.692 82.602 255.981 83.414 255.981 84.478V89H254.721V84.66C254.721 83.8947 254.53 83.3113 254.147 82.91C253.765 82.4993 253.242 82.294 252.579 82.294C251.907 82.294 251.371 82.504 250.969 82.924C250.577 83.344 250.381 83.9553 250.381 84.758V89H249.107V81.328H250.381V82.42C250.633 82.028 250.974 81.7247 251.403 81.51C251.842 81.2953 252.323 81.188 252.845 81.188ZM259.616 82.378V86.9C259.616 87.2733 259.696 87.5393 259.854 87.698C260.013 87.8473 260.288 87.922 260.68 87.922H261.618V89H260.47C259.761 89 259.229 88.8367 258.874 88.51C258.52 88.1833 258.342 87.6467 258.342 86.9V82.378H257.348V81.328H258.342V79.396H259.616V81.328H261.618V82.378H259.616ZM266.97 81.188C267.549 81.188 268.071 81.314 268.538 81.566C269.005 81.8087 269.369 82.1773 269.63 82.672C269.901 83.1667 270.036 83.7687 270.036 84.478V89H268.776V84.66C268.776 83.8947 268.585 83.3113 268.202 82.91C267.819 82.4993 267.297 82.294 266.634 82.294C265.962 82.294 265.425 82.504 265.024 82.924C264.632 83.344 264.436 83.9553 264.436 84.758V89H263.162V78.64H264.436V82.42C264.688 82.028 265.033 81.7247 265.472 81.51C265.92 81.2953 266.419 81.188 266.97 81.188ZM274.833 89.126C274.245 89.126 273.718 89.028 273.251 88.832C272.784 88.6267 272.416 88.3467 272.145 87.992C271.874 87.628 271.725 87.2127 271.697 86.746H273.013C273.05 87.1287 273.228 87.4413 273.545 87.684C273.872 87.9267 274.296 88.048 274.819 88.048C275.304 88.048 275.687 87.9407 275.967 87.726C276.247 87.5113 276.387 87.2407 276.387 86.914C276.387 86.578 276.238 86.3307 275.939 86.172C275.64 86.004 275.178 85.8407 274.553 85.682C273.984 85.5327 273.517 85.3833 273.153 85.234C272.798 85.0753 272.49 84.8467 272.229 84.548C271.977 84.24 271.851 83.8387 271.851 83.344C271.851 82.952 271.968 82.5927 272.201 82.266C272.434 81.9393 272.766 81.6827 273.195 81.496C273.624 81.3 274.114 81.202 274.665 81.202C275.514 81.202 276.2 81.4167 276.723 81.846C277.246 82.2753 277.526 82.8633 277.563 83.61H276.289C276.261 83.2087 276.098 82.8867 275.799 82.644C275.51 82.4013 275.118 82.28 274.623 82.28C274.166 82.28 273.802 82.378 273.531 82.574C273.26 82.77 273.125 83.0267 273.125 83.344C273.125 83.596 273.204 83.806 273.363 83.974C273.531 84.1327 273.736 84.2633 273.979 84.366C274.231 84.4593 274.576 84.5667 275.015 84.688C275.566 84.8373 276.014 84.9867 276.359 85.136C276.704 85.276 276.998 85.4907 277.241 85.78C277.493 86.0693 277.624 86.4473 277.633 86.914C277.633 87.334 277.516 87.712 277.283 88.048C277.05 88.384 276.718 88.65 276.289 88.846C275.869 89.0327 275.384 89.126 274.833 89.126Z" fill="black"/>
<path d="M312.644 80.04V78.878H315.276V89H313.988V80.04H312.644ZM328.239 79.242L325.061 85.318V89H323.787V85.318L320.595 79.242H322.009L324.417 84.184L326.825 79.242H328.239ZM336.583 84.87C336.583 85.1127 336.569 85.3693 336.541 85.64H330.409C330.456 86.396 330.712 86.9887 331.179 87.418C331.655 87.838 332.229 88.048 332.901 88.048C333.452 88.048 333.909 87.922 334.273 87.67C334.646 87.4087 334.908 87.0633 335.057 86.634H336.429C336.224 87.3713 335.813 87.9733 335.197 88.44C334.581 88.8973 333.816 89.126 332.901 89.126C332.173 89.126 331.52 88.9627 330.941 88.636C330.372 88.3093 329.924 87.8473 329.597 87.25C329.27 86.6433 329.107 85.9433 329.107 85.15C329.107 84.3567 329.266 83.6613 329.583 83.064C329.9 82.4667 330.344 82.0093 330.913 81.692C331.492 81.3653 332.154 81.202 332.901 81.202C333.629 81.202 334.273 81.3607 334.833 81.678C335.393 81.9953 335.822 82.434 336.121 82.994C336.429 83.5447 336.583 84.17 336.583 84.87ZM335.267 84.604C335.267 84.1187 335.16 83.7033 334.945 83.358C334.73 83.0033 334.436 82.7373 334.063 82.56C333.699 82.3733 333.293 82.28 332.845 82.28C332.201 82.28 331.65 82.4853 331.193 82.896C330.745 83.3067 330.488 83.876 330.423 84.604H335.267ZM337.789 85.136C337.789 84.352 337.947 83.666 338.265 83.078C338.582 82.4807 339.016 82.0187 339.567 81.692C340.127 81.3653 340.747 81.202 341.429 81.202C342.101 81.202 342.684 81.3467 343.179 81.636C343.673 81.9253 344.042 82.2893 344.285 82.728V81.328H345.573V89H344.285V87.572C344.033 88.02 343.655 88.3933 343.151 88.692C342.656 88.9813 342.077 89.126 341.415 89.126C340.733 89.126 340.117 88.958 339.567 88.622C339.016 88.286 338.582 87.8147 338.265 87.208C337.947 86.6013 337.789 85.9107 337.789 85.136ZM344.285 85.15C344.285 84.5713 344.168 84.0673 343.935 83.638C343.701 83.2087 343.384 82.882 342.983 82.658C342.591 82.4247 342.157 82.308 341.681 82.308C341.205 82.308 340.771 82.42 340.379 82.644C339.987 82.868 339.674 83.1947 339.441 83.624C339.207 84.0533 339.091 84.5573 339.091 85.136C339.091 85.724 339.207 86.2373 339.441 86.676C339.674 87.1053 339.987 87.4367 340.379 87.67C340.771 87.894 341.205 88.006 341.681 88.006C342.157 88.006 342.591 87.894 342.983 87.67C343.384 87.4367 343.701 87.1053 343.935 86.676C344.168 86.2373 344.285 85.7287 344.285 85.15ZM348.999 82.574C349.223 82.1353 349.541 81.7947 349.951 81.552C350.371 81.3093 350.88 81.188 351.477 81.188V82.504H351.141C349.713 82.504 348.999 83.2787 348.999 84.828V89H347.725V81.328H348.999V82.574Z" fill="black"/>
<rect x="33.25" y="65.25" width="342.5" height="37.5" rx="7.75" stroke="#A9A9A9" stroke-width="0.5"/>
<rect x="97.8621" y="138" width="25.8246" height="210.294" rx="12.9123" fill="#F8F8F8"/>
<path d="M105.081 367.373V374.583C105.081 375.386 104.834 376.03 104.339 376.515C103.844 376.991 103.191 377.229 102.379 377.229C101.558 377.229 100.9 376.987 100.405 376.501C99.9102 376.007 99.6629 375.335 99.6629 374.485H100.937C100.946 374.961 101.068 375.349 101.301 375.647C101.544 375.946 101.903 376.095 102.379 376.095C102.855 376.095 103.21 375.955 103.443 375.675C103.676 375.386 103.793 375.022 103.793 374.583V367.373H105.081ZM113.359 374.961H109.103L108.319 377.131H106.975L110.503 367.429H111.973L115.487 377.131H114.143L113.359 374.961ZM112.995 373.925L111.231 368.997L109.467 373.925H112.995ZM124.696 377.131H123.422L118.298 369.361V377.131H117.024V367.359H118.298L123.422 375.115V367.359H124.696V377.131Z" fill="#474B4E"/>
<rect x="140.904" y="138" width="25.8246" height="210.294" rx="12.9123" fill="#F8F8F8"/>
<path d="M150.358 368.676V369.786H145.813V373.311H149.503V374.421H145.813V379.131H144.448V368.676H150.358ZM153.371 369.786V373.281H157.181V374.406H153.371V378.006H157.631V379.131H152.006V368.661H157.631V369.786H153.371ZM164.932 373.746C165.312 373.806 165.657 373.961 165.967 374.211C166.287 374.461 166.537 374.771 166.717 375.141C166.907 375.511 167.002 375.906 167.002 376.326C167.002 376.856 166.867 377.336 166.597 377.766C166.327 378.186 165.932 378.521 165.412 378.771C164.902 379.011 164.297 379.131 163.597 379.131H159.697V368.676H163.447C164.157 368.676 164.762 368.796 165.262 369.036C165.762 369.266 166.137 369.581 166.387 369.981C166.637 370.381 166.762 370.831 166.762 371.331C166.762 371.951 166.592 372.466 166.252 372.876C165.922 373.276 165.482 373.566 164.932 373.746ZM161.062 373.191H163.357C163.997 373.191 164.492 373.041 164.842 372.741C165.192 372.441 165.367 372.026 165.367 371.496C165.367 370.966 165.192 370.551 164.842 370.251C164.492 369.951 163.987 369.801 163.327 369.801H161.062V373.191ZM163.477 378.006C164.157 378.006 164.687 377.846 165.067 377.526C165.447 377.206 165.637 376.761 165.637 376.191C165.637 375.611 165.437 375.156 165.037 374.826C164.637 374.486 164.102 374.316 163.432 374.316H161.062V378.006H163.477Z" fill="#474B4E"/>
<rect x="185.665" y="138" width="25.8246" height="210.294" rx="12.9123" fill="url(#paint0_linear_244_174)"/>
<path d="M195.511 368.62V379H194.146V371.26L190.696 379H189.736L186.271 371.245V379H184.906V368.62H186.376L190.216 377.2L194.056 368.62H195.511ZM204.006 376.675H199.446L198.606 379H197.166L200.946 368.605H202.521L206.286 379H204.846L204.006 376.675ZM203.616 375.565L201.726 370.285L199.836 375.565H203.616ZM213.438 379L210.948 374.725H209.298V379H207.933V368.545H211.308C212.098 368.545 212.763 368.68 213.303 368.95C213.853 369.22 214.263 369.585 214.533 370.045C214.803 370.505 214.938 371.03 214.938 371.62C214.938 372.34 214.728 372.975 214.308 373.525C213.898 374.075 213.278 374.44 212.448 374.62L215.073 379H213.438ZM209.298 373.63H211.308C212.048 373.63 212.603 373.45 212.973 373.09C213.343 372.72 213.528 372.23 213.528 371.62C213.528 371 213.343 370.52 212.973 370.18C212.613 369.84 212.058 369.67 211.308 369.67H209.298V373.63Z" fill="#474B4E"/>
<rect x="229.568" y="138" width="25.8246" height="210.294" rx="12.9123" fill="#F8F8F8"/>
<path d="M238.099 376.806H233.539L232.699 379.131H231.259L235.039 368.736H236.614L240.379 379.131H238.939L238.099 376.806ZM237.709 375.696L235.819 370.416L233.929 375.696H237.709ZM249.016 371.736C249.016 372.606 248.716 373.331 248.116 373.911C247.526 374.481 246.621 374.766 245.401 374.766H243.391V379.131H242.026V368.676H245.401C246.581 368.676 247.476 368.961 248.086 369.531C248.706 370.101 249.016 370.836 249.016 371.736ZM245.401 373.641C246.161 373.641 246.721 373.476 247.081 373.146C247.441 372.816 247.621 372.346 247.621 371.736C247.621 370.446 246.881 369.801 245.401 369.801H243.391V373.641H245.401ZM256.218 379.131L253.728 374.856H252.078V379.131H250.713V368.676H254.088C254.878 368.676 255.543 368.811 256.083 369.081C256.633 369.351 257.043 369.716 257.313 370.176C257.583 370.636 257.718 371.161 257.718 371.751C257.718 372.471 257.508 373.106 257.088 373.656C256.678 374.206 256.058 374.571 255.228 374.751L257.853 379.131H256.218ZM252.078 373.761H254.088C254.828 373.761 255.383 373.581 255.753 373.221C256.123 372.851 256.308 372.361 256.308 371.751C256.308 371.131 256.123 370.651 255.753 370.311C255.393 369.971 254.838 369.801 254.088 369.801H252.078V373.761Z" fill="#474B4E"/>
<rect x="273.469" y="138" width="25.8246" height="210.294" rx="12.9123" fill="#F8F8F8"/>
<path d="M283.511 368.62V379H282.146V371.26L278.696 379H277.736L274.271 371.245V379H272.906V368.62H274.376L278.216 377.2L282.056 368.62H283.511ZM292.006 376.675H287.446L286.606 379H285.166L288.946 368.605H290.521L294.286 379H292.846L292.006 376.675ZM291.616 375.565L289.726 370.285L287.836 375.565H291.616ZM303.254 368.545L299.849 375.055V379H298.484V375.055L295.064 368.545H296.579L299.159 373.84L301.739 368.545H303.254Z" fill="#474B4E"/>
<rect x="317.371" y="138" width="25.8246" height="210.294" rx="12.9123" fill="#F8F8F8"/>
<path d="M324.65 368.676V376.401C324.65 377.261 324.385 377.951 323.855 378.471C323.325 378.981 322.625 379.236 321.755 379.236C320.875 379.236 320.17 378.976 319.64 378.456C319.11 377.926 318.845 377.206 318.845 376.296H320.21C320.22 376.806 320.35 377.221 320.6 377.541C320.86 377.861 321.245 378.021 321.755 378.021C322.265 378.021 322.645 377.871 322.895 377.571C323.145 377.261 323.27 376.871 323.27 376.401V368.676H324.65ZM328.674 368.676V375.291C328.674 376.221 328.899 376.911 329.349 377.361C329.809 377.811 330.444 378.036 331.254 378.036C332.054 378.036 332.679 377.811 333.129 377.361C333.589 376.911 333.819 376.221 333.819 375.291V368.676H335.184V375.276C335.184 376.146 335.009 376.881 334.659 377.481C334.309 378.071 333.834 378.511 333.234 378.801C332.644 379.091 331.979 379.236 331.239 379.236C330.499 379.236 329.829 379.091 329.229 378.801C328.639 378.511 328.169 378.071 327.819 377.481C327.479 376.881 327.309 376.146 327.309 375.276V368.676H328.674ZM345.681 379.131H344.316L338.826 370.806V379.131H337.461V368.661H338.826L344.316 376.971V368.661H345.681V379.131Z" fill="#474B4E"/>
<line x1="98.3621" y1="344.346" x2="346.139" y2="344.346" stroke="#C9CBCD" stroke-linecap="round" stroke-dasharray="3 6"/>
<line x1="98.3621" y1="295.221" x2="346.999" y2="295.221" stroke="#C9CBCD" stroke-linecap="round" stroke-dasharray="3 6"/>
<line x1="98.3621" y1="242.647" x2="346.139" y2="242.647" stroke="#C9CBCD" stroke-linecap="round" stroke-dasharray="3 6"/>
<line x1="98.3621" y1="190.074" x2="346.999" y2="190.074" stroke="#C9CBCD" stroke-linecap="round" stroke-dasharray="3 6"/>
<line x1="98.3621" y1="137.5" x2="346.999" y2="137.5" stroke="#C9CBCD" stroke-linecap="round" stroke-dasharray="3 6"/>
<rect x="178.186" y="248.318" width="58" height="23.1651" rx="11.5825" fill="#292D30"/>
<path d="M197.01 261.608C197.01 261.992 196.914 262.36 196.722 262.712C196.53 263.056 196.246 263.344 195.87 263.576C195.502 263.808 195.058 263.94 194.538 263.972V264.944H193.89V263.972C193.162 263.908 192.57 263.676 192.114 263.276C191.658 262.868 191.426 262.352 191.418 261.728H192.582C192.614 262.064 192.738 262.356 192.954 262.604C193.178 262.852 193.49 263.008 193.89 263.072V260.072C193.354 259.936 192.922 259.796 192.594 259.652C192.266 259.508 191.986 259.284 191.754 258.98C191.522 258.676 191.406 258.268 191.406 257.756C191.406 257.108 191.63 256.572 192.078 256.148C192.534 255.724 193.138 255.488 193.89 255.44V254.444H194.538V255.44C195.218 255.496 195.766 255.716 196.182 256.1C196.598 256.476 196.838 256.968 196.902 257.576H195.738C195.698 257.296 195.574 257.044 195.366 256.82C195.158 256.588 194.882 256.436 194.538 256.364V259.292C195.066 259.428 195.494 259.568 195.822 259.712C196.158 259.848 196.438 260.068 196.662 260.372C196.894 260.676 197.01 261.088 197.01 261.608ZM192.522 257.696C192.522 258.088 192.638 258.388 192.87 258.596C193.102 258.804 193.442 258.976 193.89 259.112V256.34C193.474 256.38 193.142 256.516 192.894 256.748C192.646 256.972 192.522 257.288 192.522 257.696ZM194.538 263.084C194.97 263.036 195.306 262.88 195.546 262.616C195.794 262.352 195.918 262.036 195.918 261.668C195.918 261.276 195.798 260.976 195.558 260.768C195.318 260.552 194.978 260.38 194.538 260.252V263.084ZM198.871 257.408C198.927 256.672 199.211 256.096 199.723 255.68C200.235 255.264 200.899 255.056 201.715 255.056C202.259 255.056 202.727 255.156 203.119 255.356C203.519 255.548 203.819 255.812 204.019 256.148C204.227 256.484 204.331 256.864 204.331 257.288C204.331 257.784 204.187 258.212 203.899 258.572C203.619 258.932 203.251 259.164 202.795 259.268V259.328C203.315 259.456 203.727 259.708 204.031 260.084C204.335 260.46 204.487 260.952 204.487 261.56C204.487 262.016 204.383 262.428 204.175 262.796C203.967 263.156 203.655 263.44 203.239 263.648C202.823 263.856 202.323 263.96 201.739 263.96C200.891 263.96 200.195 263.74 199.651 263.3C199.107 262.852 198.803 262.22 198.739 261.404H199.795C199.851 261.884 200.047 262.276 200.383 262.58C200.719 262.884 201.167 263.036 201.727 263.036C202.287 263.036 202.711 262.892 202.999 262.604C203.295 262.308 203.443 261.928 203.443 261.464C203.443 260.864 203.243 260.432 202.843 260.168C202.443 259.904 201.839 259.772 201.031 259.772H200.755V258.86H201.043C201.779 258.852 202.335 258.732 202.711 258.5C203.087 258.26 203.275 257.892 203.275 257.396C203.275 256.972 203.135 256.632 202.855 256.376C202.583 256.12 202.191 255.992 201.679 255.992C201.183 255.992 200.783 256.12 200.479 256.376C200.175 256.632 199.995 256.976 199.939 257.408H198.871ZM205.961 259.472C205.961 258.096 206.185 257.024 206.633 256.256C207.081 255.48 207.865 255.092 208.985 255.092C210.097 255.092 210.877 255.48 211.325 256.256C211.773 257.024 211.997 258.096 211.997 259.472C211.997 260.872 211.773 261.96 211.325 262.736C210.877 263.512 210.097 263.9 208.985 263.9C207.865 263.9 207.081 263.512 206.633 262.736C206.185 261.96 205.961 260.872 205.961 259.472ZM210.917 259.472C210.917 258.776 210.869 258.188 210.773 257.708C210.685 257.22 210.497 256.828 210.209 256.532C209.929 256.236 209.521 256.088 208.985 256.088C208.441 256.088 208.025 256.236 207.737 256.532C207.457 256.828 207.269 257.22 207.173 257.708C207.085 258.188 207.041 258.776 207.041 259.472C207.041 260.192 207.085 260.796 207.173 261.284C207.269 261.772 207.457 262.164 207.737 262.46C208.025 262.756 208.441 262.904 208.985 262.904C209.521 262.904 209.929 262.756 210.209 262.46C210.497 262.164 210.685 261.772 210.773 261.284C210.869 260.796 210.917 260.192 210.917 259.472ZM214.024 263.972C213.816 263.972 213.64 263.9 213.496 263.756C213.352 263.612 213.28 263.436 213.28 263.228C213.28 263.02 213.352 262.844 213.496 262.7C213.64 262.556 213.816 262.484 214.024 262.484C214.224 262.484 214.392 262.556 214.528 262.7C214.672 262.844 214.744 263.02 214.744 263.228C214.744 263.436 214.672 263.612 214.528 263.756C214.392 263.9 214.224 263.972 214.024 263.972ZM221.548 256.172H217.336V258.908C217.52 258.652 217.792 258.444 218.152 258.284C218.512 258.116 218.9 258.032 219.316 258.032C219.98 258.032 220.52 258.172 220.936 258.452C221.352 258.724 221.648 259.08 221.824 259.52C222.008 259.952 222.1 260.412 222.1 260.9C222.1 261.476 221.992 261.992 221.776 262.448C221.56 262.904 221.228 263.264 220.78 263.528C220.34 263.792 219.792 263.924 219.136 263.924C218.296 263.924 217.616 263.708 217.096 263.276C216.576 262.844 216.26 262.268 216.148 261.548H217.216C217.32 262.004 217.54 262.36 217.876 262.616C218.212 262.872 218.636 263 219.148 263C219.78 263 220.256 262.812 220.576 262.436C220.896 262.052 221.056 261.548 221.056 260.924C221.056 260.3 220.896 259.82 220.576 259.484C220.256 259.14 219.784 258.968 219.16 258.968C218.736 258.968 218.364 259.072 218.044 259.28C217.732 259.48 217.504 259.756 217.36 260.108H216.328V255.212H221.548V256.172Z" fill="white"/>
<path d="M208.09 276.569C207.729 277.332 206.642 277.332 206.282 276.569L203.963 271.66C203.649 270.996 204.133 270.233 204.867 270.233L209.505 270.233C210.238 270.233 210.722 270.996 210.409 271.66L208.09 276.569Z" fill="#292D30"/>
<path d="M198.577 300.168C201.983 300.168 204.742 297.404 204.742 293.997C204.742 290.59 201.983 287.825 198.577 287.825C195.171 287.825 192.412 290.59 192.412 293.997C192.412 297.404 195.171 300.168 198.577 300.168Z" fill="#292D30" stroke="white" stroke-width="2"/>
<path d="M97 297.136C112.471 300.151 121.888 225.91 144.086 225.91C166.284 225.91 164.602 297.136 187.473 297.136C210.343 297.136 214.379 274.901 228.842 276.786C243.304 278.67 242.968 309.949 264.156 309.949C285.345 309.949 288.477 295.186 302.834 297.136C313.933 298.643 329.068 321.812 343.194 325.024" stroke="#292D30" stroke-width="2" stroke-linecap="round"/>
<path d="M60.714 136.978C61.8993 136.026 62.828 135.247 63.5 134.64C64.172 134.024 64.7367 133.385 65.194 132.722C65.6607 132.05 65.894 131.392 65.894 130.748C65.894 130.141 65.7447 129.665 65.446 129.32C65.1567 128.965 64.6853 128.788 64.032 128.788C63.3973 128.788 62.9027 128.989 62.548 129.39C62.2027 129.782 62.016 130.309 61.988 130.972H60.756C60.7933 129.927 61.1107 129.119 61.708 128.55C62.3053 127.981 63.0753 127.696 64.018 127.696C64.9793 127.696 65.74 127.962 66.3 128.494C66.8693 129.026 67.154 129.759 67.154 130.692C67.154 131.467 66.9207 132.223 66.454 132.96C65.9967 133.688 65.474 134.332 64.886 134.892C64.298 135.443 63.5467 136.087 62.632 136.824H67.448V137.888H60.714V136.978ZM75.3747 128.984H70.4607V132.176C70.6754 131.877 70.9927 131.635 71.4127 131.448C71.8327 131.252 72.2854 131.154 72.7707 131.154C73.5454 131.154 74.1754 131.317 74.6607 131.644C75.1461 131.961 75.4914 132.377 75.6967 132.89C75.9114 133.394 76.0187 133.931 76.0187 134.5C76.0187 135.172 75.8927 135.774 75.6407 136.306C75.3887 136.838 75.0014 137.258 74.4787 137.566C73.9654 137.874 73.3261 138.028 72.5607 138.028C71.5807 138.028 70.7874 137.776 70.1807 137.272C69.5741 136.768 69.2054 136.096 69.0747 135.256H70.3207C70.4421 135.788 70.6987 136.203 71.0907 136.502C71.4827 136.801 71.9774 136.95 72.5747 136.95C73.3121 136.95 73.8674 136.731 74.2407 136.292C74.6141 135.844 74.8007 135.256 74.8007 134.528C74.8007 133.8 74.6141 133.24 74.2407 132.848C73.8674 132.447 73.3167 132.246 72.5887 132.246C72.0941 132.246 71.6601 132.367 71.2867 132.61C70.9227 132.843 70.6567 133.165 70.4887 133.576H69.2847V127.864H75.3747V128.984ZM82.2058 138L79.1958 134.612V138H77.9218V127.64H79.1958V133.73L82.1498 130.328H83.9278L80.3158 134.15L83.9418 138H82.2058Z" fill="#474B4E"/>
<path d="M60.714 192.978C61.8993 192.026 62.828 191.247 63.5 190.64C64.172 190.024 64.7367 189.385 65.194 188.722C65.6607 188.05 65.894 187.392 65.894 186.748C65.894 186.141 65.7447 185.665 65.446 185.32C65.1567 184.965 64.6853 184.788 64.032 184.788C63.3973 184.788 62.9027 184.989 62.548 185.39C62.2027 185.782 62.016 186.309 61.988 186.972H60.756C60.7933 185.927 61.1107 185.119 61.708 184.55C62.3053 183.981 63.0753 183.696 64.018 183.696C64.9793 183.696 65.74 183.962 66.3 184.494C66.8693 185.026 67.154 185.759 67.154 186.692C67.154 187.467 66.9207 188.223 66.454 188.96C65.9967 189.688 65.474 190.332 64.886 190.892C64.298 191.443 63.5467 192.087 62.632 192.824H67.448V193.888H60.714V192.978ZM68.9207 188.834C68.9207 187.229 69.1821 185.978 69.7047 185.082C70.2274 184.177 71.1421 183.724 72.4487 183.724C73.7461 183.724 74.6561 184.177 75.1787 185.082C75.7014 185.978 75.9627 187.229 75.9627 188.834C75.9627 190.467 75.7014 191.737 75.1787 192.642C74.6561 193.547 73.7461 194 72.4487 194C71.1421 194 70.2274 193.547 69.7047 192.642C69.1821 191.737 68.9207 190.467 68.9207 188.834ZM74.7027 188.834C74.7027 188.022 74.6467 187.336 74.5347 186.776C74.4321 186.207 74.2127 185.749 73.8767 185.404C73.5501 185.059 73.0741 184.886 72.4487 184.886C71.8141 184.886 71.3287 185.059 70.9927 185.404C70.6661 185.749 70.4467 186.207 70.3347 186.776C70.2321 187.336 70.1807 188.022 70.1807 188.834C70.1807 189.674 70.2321 190.379 70.3347 190.948C70.4467 191.517 70.6661 191.975 70.9927 192.32C71.3287 192.665 71.8141 192.838 72.4487 192.838C73.0741 192.838 73.5501 192.665 73.8767 192.32C74.2127 191.975 74.4321 191.517 74.5347 190.948C74.6467 190.379 74.7027 189.674 74.7027 188.834ZM82.2058 194L79.1958 190.612V194H77.9218V183.64H79.1958V189.73L82.1498 186.328H83.9278L80.3158 190.15L83.9418 194H82.2058Z" fill="#474B4E"/>
<path d="M62.532 234.04V232.878H65.164V243H63.876V234.04H62.532ZM73.8064 233.984H68.8924V237.176C69.107 236.877 69.4244 236.635 69.8444 236.448C70.2644 236.252 70.717 236.154 71.2024 236.154C71.977 236.154 72.607 236.317 73.0924 236.644C73.5777 236.961 73.923 237.377 74.1284 237.89C74.343 238.394 74.4504 238.931 74.4504 239.5C74.4504 240.172 74.3244 240.774 74.0724 241.306C73.8204 241.838 73.433 242.258 72.9104 242.566C72.397 242.874 71.7577 243.028 70.9924 243.028C70.0124 243.028 69.219 242.776 68.6124 242.272C68.0057 241.768 67.637 241.096 67.5064 240.256H68.7524C68.8737 240.788 69.1304 241.203 69.5224 241.502C69.9144 241.801 70.409 241.95 71.0064 241.95C71.7437 241.95 72.299 241.731 72.6724 241.292C73.0457 240.844 73.2324 240.256 73.2324 239.528C73.2324 238.8 73.0457 238.24 72.6724 237.848C72.299 237.447 71.7484 237.246 71.0204 237.246C70.5257 237.246 70.0917 237.367 69.7184 237.61C69.3544 237.843 69.0884 238.165 68.9204 238.576H67.7164V232.864H73.8064V233.984ZM80.6374 243L77.6274 239.612V243H76.3534V232.64H77.6274V238.73L80.5814 235.328H82.3594L78.7474 239.15L82.3734 243H80.6374Z" fill="#474B4E"/>
<path d="M71.322 286.984H66.408V290.176C66.6227 289.877 66.94 289.635 67.36 289.448C67.78 289.252 68.2327 289.154 68.718 289.154C69.4927 289.154 70.1227 289.317 70.608 289.644C71.0933 289.961 71.4387 290.377 71.644 290.89C71.8587 291.394 71.966 291.931 71.966 292.5C71.966 293.172 71.84 293.774 71.588 294.306C71.336 294.838 70.9487 295.258 70.426 295.566C69.9127 295.874 69.2733 296.028 68.508 296.028C67.528 296.028 66.7347 295.776 66.128 295.272C65.5213 294.768 65.1527 294.096 65.022 293.256H66.268C66.3893 293.788 66.646 294.203 67.038 294.502C67.43 294.801 67.9247 294.95 68.522 294.95C69.2593 294.95 69.8147 294.731 70.188 294.292C70.5613 293.844 70.748 293.256 70.748 292.528C70.748 291.8 70.5613 291.24 70.188 290.848C69.8147 290.447 69.264 290.246 68.536 290.246C68.0413 290.246 67.6073 290.367 67.234 290.61C66.87 290.843 66.604 291.165 66.436 291.576H65.232V285.864H71.322V286.984ZM78.153 296L75.143 292.612V296H73.869V285.64H75.143V291.73L78.097 288.328H79.875L76.263 292.15L79.889 296H78.153Z" fill="#474B4E"/>
<path d="M64.868 339.834C64.868 338.229 65.1293 336.978 65.652 336.082C66.1747 335.177 67.0893 334.724 68.396 334.724C69.6933 334.724 70.6033 335.177 71.126 336.082C71.6487 336.978 71.91 338.229 71.91 339.834C71.91 341.467 71.6487 342.737 71.126 343.642C70.6033 344.547 69.6933 345 68.396 345C67.0893 345 66.1747 344.547 65.652 343.642C65.1293 342.737 64.868 341.467 64.868 339.834ZM70.65 339.834C70.65 339.022 70.594 338.336 70.482 337.776C70.3793 337.207 70.16 336.749 69.824 336.404C69.4973 336.059 69.0213 335.886 68.396 335.886C67.7613 335.886 67.276 336.059 66.94 336.404C66.6133 336.749 66.394 337.207 66.282 337.776C66.1793 338.336 66.128 339.022 66.128 339.834C66.128 340.674 66.1793 341.379 66.282 341.948C66.394 342.517 66.6133 342.975 66.94 343.32C67.276 343.665 67.7613 343.838 68.396 343.838C69.0213 343.838 69.4973 343.665 69.824 343.32C70.16 342.975 70.3793 342.517 70.482 341.948C70.594 341.379 70.65 340.674 70.65 339.834ZM78.153 345L75.143 341.612V345H73.869V334.64H75.143V340.73L78.097 337.328H79.875L76.263 341.15L79.889 345H78.153Z" fill="#474B4E"/>
<path d="M171.98 224.4V223.155H174.8V234H173.42V224.4H171.98ZM183.98 224.34H178.715V227.76C178.945 227.44 179.285 227.18 179.735 226.98C180.185 226.77 180.67 226.665 181.19 226.665C182.02 226.665 182.695 226.84 183.215 227.19C183.735 227.53 184.105 227.975 184.325 228.525C184.555 229.065 184.67 229.64 184.67 230.25C184.67 230.97 184.535 231.615 184.265 232.185C183.995 232.755 183.58 233.205 183.02 233.535C182.47 233.865 181.785 234.03 180.965 234.03C179.915 234.03 179.065 233.76 178.415 233.22C177.765 232.68 177.37 231.96 177.23 231.06H178.565C178.695 231.63 178.97 232.075 179.39 232.395C179.81 232.715 180.34 232.875 180.98 232.875C181.77 232.875 182.365 232.64 182.765 232.17C183.165 231.69 183.365 231.06 183.365 230.28C183.365 229.5 183.165 228.9 182.765 228.48C182.365 228.05 181.775 227.835 180.995 227.835C180.465 227.835 180 227.965 179.6 228.225C179.21 228.475 178.925 228.82 178.745 229.26H177.455V223.14H183.98V224.34ZM193.458 234.135C192.828 234.135 192.263 234.03 191.763 233.82C191.263 233.6 190.868 233.3 190.578 232.92C190.288 232.53 190.128 232.085 190.098 231.585H191.508C191.548 231.995 191.738 232.33 192.078 232.59C192.428 232.85 192.883 232.98 193.443 232.98C193.963 232.98 194.373 232.865 194.673 232.635C194.973 232.405 195.123 232.115 195.123 231.765C195.123 231.405 194.963 231.14 194.643 230.97C194.323 230.79 193.828 230.615 193.158 230.445C192.548 230.285 192.048 230.125 191.658 229.965C191.278 229.795 190.948 229.55 190.668 229.23C190.398 228.9 190.263 228.47 190.263 227.94C190.263 227.52 190.388 227.135 190.638 226.785C190.888 226.435 191.243 226.16 191.703 225.96C192.163 225.75 192.688 225.645 193.278 225.645C194.188 225.645 194.923 225.875 195.483 226.335C196.043 226.795 196.343 227.425 196.383 228.225H195.018C194.988 227.795 194.813 227.45 194.493 227.19C194.183 226.93 193.763 226.8 193.233 226.8C192.743 226.8 192.353 226.905 192.063 227.115C191.773 227.325 191.628 227.6 191.628 227.94C191.628 228.21 191.713 228.435 191.883 228.615C192.063 228.785 192.283 228.925 192.543 229.035C192.813 229.135 193.183 229.25 193.653 229.38C194.243 229.54 194.723 229.7 195.093 229.86C195.463 230.01 195.778 230.24 196.038 230.55C196.308 230.86 196.448 231.265 196.458 231.765C196.458 232.215 196.333 232.62 196.083 232.98C195.833 233.34 195.478 233.625 195.018 233.835C194.568 234.035 194.048 234.135 193.458 234.135ZM205.805 229.575C205.805 229.835 205.79 230.11 205.76 230.4H199.19C199.24 231.21 199.515 231.845 200.015 232.305C200.525 232.755 201.14 232.98 201.86 232.98C202.45 232.98 202.94 232.845 203.33 232.575C203.73 232.295 204.01 231.925 204.17 231.465H205.64C205.42 232.255 204.98 232.9 204.32 233.4C203.66 233.89 202.84 234.135 201.86 234.135C201.08 234.135 200.38 233.96 199.76 233.61C199.15 233.26 198.67 232.765 198.32 232.125C197.97 231.475 197.795 230.725 197.795 229.875C197.795 229.025 197.965 228.28 198.305 227.64C198.645 227 199.12 226.51 199.73 226.17C200.35 225.82 201.06 225.645 201.86 225.645C202.64 225.645 203.33 225.815 203.93 226.155C204.53 226.495 204.99 226.965 205.31 227.565C205.64 228.155 205.805 228.825 205.805 229.575ZM204.395 229.29C204.395 228.77 204.28 228.325 204.05 227.955C203.82 227.575 203.505 227.29 203.105 227.1C202.715 226.9 202.28 226.8 201.8 226.8C201.11 226.8 200.52 227.02 200.03 227.46C199.55 227.9 199.275 228.51 199.205 229.29H204.395ZM208.892 227.31C209.172 226.82 209.582 226.42 210.122 226.11C210.662 225.8 211.277 225.645 211.967 225.645C212.707 225.645 213.372 225.82 213.962 226.17C214.552 226.52 215.017 227.015 215.357 227.655C215.697 228.285 215.867 229.02 215.867 229.86C215.867 230.69 215.697 231.43 215.357 232.08C215.017 232.73 214.547 233.235 213.947 233.595C213.357 233.955 212.697 234.135 211.967 234.135C211.257 234.135 210.632 233.98 210.092 233.67C209.562 233.36 209.162 232.965 208.892 232.485V234H207.527V222.9H208.892V227.31ZM214.472 229.86C214.472 229.24 214.347 228.7 214.097 228.24C213.847 227.78 213.507 227.43 213.077 227.19C212.657 226.95 212.192 226.83 211.682 226.83C211.182 226.83 210.717 226.955 210.287 227.205C209.867 227.445 209.527 227.8 209.267 228.27C209.017 228.73 208.892 229.265 208.892 229.875C208.892 230.495 209.017 231.04 209.267 231.51C209.527 231.97 209.867 232.325 210.287 232.575C210.717 232.815 211.182 232.935 211.682 232.935C212.192 232.935 212.657 232.815 213.077 232.575C213.507 232.325 213.847 231.97 214.097 231.51C214.347 231.04 214.472 230.49 214.472 229.86ZM218.993 232.11L217.313 236.145H216.398L217.493 232.11H218.993ZM220.087 232.905C221.357 231.885 222.352 231.05 223.072 230.4C223.792 229.74 224.397 229.055 224.887 228.345C225.387 227.625 225.637 226.92 225.637 226.23C225.637 225.58 225.477 225.07 225.157 224.7C224.847 224.32 224.342 224.13 223.642 224.13C222.962 224.13 222.432 224.345 222.052 224.775C221.682 225.195 221.482 225.76 221.452 226.47H220.132C220.172 225.35 220.512 224.485 221.152 223.875C221.792 223.265 222.617 222.96 223.627 222.96C224.657 222.96 225.472 223.245 226.072 223.815C226.682 224.385 226.987 225.17 226.987 226.17C226.987 227 226.737 227.81 226.237 228.6C225.747 229.38 225.187 230.07 224.557 230.67C223.927 231.26 223.122 231.95 222.142 232.74H227.302V233.88H220.087V232.905ZM228.8 228.465C228.8 226.745 229.08 225.405 229.64 224.445C230.2 223.475 231.18 222.99 232.58 222.99C233.97 222.99 234.945 223.475 235.505 224.445C236.065 225.405 236.345 226.745 236.345 228.465C236.345 230.215 236.065 231.575 235.505 232.545C234.945 233.515 233.97 234 232.58 234C231.18 234 230.2 233.515 229.64 232.545C229.08 231.575 228.8 230.215 228.8 228.465ZM234.995 228.465C234.995 227.595 234.935 226.86 234.815 226.26C234.705 225.65 234.47 225.16 234.11 224.79C233.76 224.42 233.25 224.235 232.58 224.235C231.9 224.235 231.38 224.42 231.02 224.79C230.67 225.16 230.435 225.65 230.315 226.26C230.205 226.86 230.15 227.595 230.15 228.465C230.15 229.365 230.205 230.12 230.315 230.73C230.435 231.34 230.67 231.83 231.02 232.2C231.38 232.57 231.9 232.755 232.58 232.755C233.25 232.755 233.76 232.57 234.11 232.2C234.47 231.83 234.705 231.34 234.815 230.73C234.935 230.12 234.995 229.365 234.995 228.465ZM237.974 232.905C239.244 231.885 240.239 231.05 240.959 230.4C241.679 229.74 242.284 229.055 242.774 228.345C243.274 227.625 243.524 226.92 243.524 226.23C243.524 225.58 243.364 225.07 243.044 224.7C242.734 224.32 242.229 224.13 241.529 224.13C240.849 224.13 240.319 224.345 239.939 224.775C239.569 225.195 239.369 225.76 239.339 226.47H238.019C238.059 225.35 238.399 224.485 239.039 223.875C239.679 223.265 240.504 222.96 241.514 222.96C242.544 222.96 243.359 223.245 243.959 223.815C244.569 224.385 244.874 225.17 244.874 226.17C244.874 227 244.624 227.81 244.124 228.6C243.634 229.38 243.074 230.07 242.444 230.67C241.814 231.26 241.009 231.95 240.029 232.74H245.189V233.88H237.974V232.905ZM246.657 225.885C246.727 224.965 247.082 224.245 247.722 223.725C248.362 223.205 249.192 222.945 250.212 222.945C250.892 222.945 251.477 223.07 251.967 223.32C252.467 223.56 252.842 223.89 253.092 224.31C253.352 224.73 253.482 225.205 253.482 225.735C253.482 226.355 253.302 226.89 252.942 227.34C252.592 227.79 252.132 228.08 251.562 228.21V228.285C252.212 228.445 252.727 228.76 253.107 229.23C253.487 229.7 253.677 230.315 253.677 231.075C253.677 231.645 253.547 232.16 253.287 232.62C253.027 233.07 252.637 233.425 252.117 233.685C251.597 233.945 250.972 234.075 250.242 234.075C249.182 234.075 248.312 233.8 247.632 233.25C246.952 232.69 246.572 231.9 246.492 230.88H247.812C247.882 231.48 248.127 231.97 248.547 232.35C248.967 232.73 249.527 232.92 250.227 232.92C250.927 232.92 251.457 232.74 251.817 232.38C252.187 232.01 252.372 231.535 252.372 230.955C252.372 230.205 252.122 229.665 251.622 229.335C251.122 229.005 250.367 228.84 249.357 228.84H249.012V227.7H249.372C250.292 227.69 250.987 227.54 251.457 227.25C251.927 226.95 252.162 226.49 252.162 225.87C252.162 225.34 251.987 224.915 251.637 224.595C251.297 224.275 250.807 224.115 250.167 224.115C249.547 224.115 249.047 224.275 248.667 224.595C248.287 224.915 248.062 225.345 247.992 225.885H246.657Z" fill="black"/>
<defs>
<filter id="filter0_dd_244_174" x="0" y="0" width="416" height="439" filterUnits="userSpaceOnUse" color-interpolation-filters="sRGB">
<feFlood flood-opacity="0" result="BackgroundImageFix"/>
<feColorMatrix in="SourceAlpha" type="matrix" values="0 0 0 0 0 0 0 0 0 0 0 0 0 0 0 0 0 0 127 0" result="hardAlpha"/>
<feOffset dx="4" dy="16"/>
<feGaussianBlur stdDeviation="8"/>
<feComposite in2="hardAlpha" operator="out"/>
<feColorMatrix type="matrix" values="0 0 0 0 0.639216 0 0 0 0 0.639216 0 0 0 0 0.639216 0 0 0 0.16 0"/>
<feBlend mode="normal" in2="BackgroundImageFix" result="effect1_dropShadow_244_174"/>
<feColorMatrix in="SourceAlpha" type="matrix" values="0 0 0 0 0 0 0 0 0 0 0 0 0 0 0 0 0 0 127 0" result="hardAlpha"/>
<feOffset dy="4"/>
<feGaussianBlur stdDeviation="2"/>
<feComposite in2="hardAlpha" operator="out"/>
<feColorMatrix type="matrix" values="0 0 0 0 0.639216 0 0 0 0 0.639216 0 0 0 0 0.639216 0 0 0 0.25 0"/>
<feBlend mode="normal" in2="effect1_dropShadow_244_174" result="effect2_dropShadow_244_174"/>
<feBlend mode="normal" in="SourceGraphic" in2="effect2_dropShadow_244_174" result="shape"/>
</filter>
<linearGradient id="paint0_linear_244_174" x1="198.577" y1="138" x2="198.577" y2="348.294" gradientUnits="userSpaceOnUse">
<stop stop-color="white" stop-opacity="0"/>
<stop offset="1" stop-color="#8C5CB3"/>
</linearGradient>
</defs>
</svg>
