<svg width="68" height="20" viewBox="0 0 68 20" fill="none" xmlns="http://www.w3.org/2000/svg">
<path d="M0.219194 19V0.818181H2.96245V16.6385H11.2011V19H0.219194ZM29.4162 9.90909C29.4162 11.8504 29.0611 13.5194 28.3509 14.9162C27.6406 16.3071 26.667 17.3783 25.43 18.13C24.199 18.8757 22.7992 19.2486 21.2308 19.2486C19.6565 19.2486 18.2508 18.8757 17.0138 18.13C15.7828 17.3783 14.8121 16.3041 14.1019 14.9073C13.3917 13.5105 13.0366 11.8445 13.0366 9.90909C13.0366 7.9678 13.3917 6.30173 14.1019 4.91087C14.8121 3.51409 15.7828 2.44283 17.0138 1.69709C18.2508 0.94543 19.6565 0.569602 21.2308 0.569602C22.7992 0.569602 24.199 0.94543 25.43 1.69709C26.667 2.44283 27.6406 3.51409 28.3509 4.91087C29.0611 6.30173 29.4162 7.9678 29.4162 9.90909ZM26.6996 9.90909C26.6996 8.42945 26.4599 7.18359 25.9805 6.17152C25.507 5.15353 24.8559 4.38411 24.0273 3.86328C23.2047 3.33653 22.2725 3.07315 21.2308 3.07315C20.1832 3.07315 19.2481 3.33653 18.4254 3.86328C17.6027 4.38411 16.9517 5.15353 16.4723 6.17152C15.9988 7.18359 15.7621 8.42945 15.7621 9.90909C15.7621 11.3887 15.9988 12.6375 16.4723 13.6555C16.9517 14.6676 17.6027 15.437 18.4254 15.9638C19.2481 16.4846 20.1832 16.745 21.2308 16.745C22.2725 16.745 23.2047 16.4846 24.0273 15.9638C24.8559 15.437 25.507 14.6676 25.9805 13.6555C26.4599 12.6375 26.6996 11.3887 26.6996 9.90909ZM45.1411 6.56214C44.9694 6.02356 44.7386 5.54119 44.4486 5.11506C44.1645 4.683 43.8242 4.31605 43.4276 4.0142C43.0311 3.70644 42.5783 3.47266 42.0693 3.31285C41.5663 3.15305 41.0129 3.07315 40.4092 3.07315C39.3853 3.07315 38.462 3.33653 37.6393 3.86328C36.8166 4.39003 36.1656 5.16241 35.6862 6.1804C35.2127 7.19247 34.9759 8.43241 34.9759 9.90021C34.9759 11.3739 35.2156 12.6198 35.695 13.6378C36.1744 14.6558 36.8314 15.4281 37.6659 15.9549C38.5004 16.4817 39.4504 16.745 40.5157 16.745C41.5041 16.745 42.3653 16.5438 43.0992 16.1413C43.839 15.7389 44.4101 15.1707 44.8126 14.4368C45.221 13.697 45.4252 12.8269 45.4252 11.8267L46.1354 11.9599H40.933V9.69602H48.0796V11.7646C48.0796 13.2915 47.7541 14.6173 47.1031 15.7418C46.4579 16.8604 45.5642 17.7246 44.422 18.3342C43.2856 18.9438 41.9835 19.2486 40.5157 19.2486C38.8704 19.2486 37.4262 18.8698 36.1833 18.1122C34.9463 17.3546 33.9816 16.2804 33.2892 14.8896C32.5967 13.4928 32.2504 11.8356 32.2504 9.91797C32.2504 8.46792 32.4517 7.16584 32.8541 6.01172C33.2566 4.8576 33.8218 3.87808 34.5498 3.07315C35.2837 2.26231 36.1449 1.64382 37.1333 1.21768C38.1276 0.785629 39.2136 0.569602 40.3914 0.569602C41.3739 0.569602 42.2883 0.714606 43.1347 1.00462C43.9869 1.29463 44.7445 1.70597 45.4074 2.23864C46.0762 2.77131 46.6296 3.40459 47.0676 4.13849C47.5055 4.86648 47.8015 5.67436 47.9553 6.56214H45.1411ZM67.3556 9.90909C67.3556 11.8504 67.0005 13.5194 66.2903 14.9162C65.5801 16.3071 64.6065 17.3783 63.3695 18.13C62.1384 18.8757 60.7387 19.2486 59.1703 19.2486C57.5959 19.2486 56.1903 18.8757 54.9533 18.13C53.7222 17.3783 52.7516 16.3041 52.0414 14.9073C51.3311 13.5105 50.976 11.8445 50.976 9.90909C50.976 7.9678 51.3311 6.30173 52.0414 4.91087C52.7516 3.51409 53.7222 2.44283 54.9533 1.69709C56.1903 0.94543 57.5959 0.569602 59.1703 0.569602C60.7387 0.569602 62.1384 0.94543 63.3695 1.69709C64.6065 2.44283 65.5801 3.51409 66.2903 4.91087C67.0005 6.30173 67.3556 7.9678 67.3556 9.90909ZM64.639 9.90909C64.639 8.42945 64.3993 7.18359 63.9199 6.17152C63.4464 5.15353 62.7954 4.38411 61.9668 3.86328C61.1441 3.33653 60.2119 3.07315 59.1703 3.07315C58.1227 3.07315 57.1876 3.33653 56.3649 3.86328C55.5422 4.38411 54.8912 5.15353 54.4118 6.17152C53.9383 7.18359 53.7015 8.42945 53.7015 9.90909C53.7015 11.3887 53.9383 12.6375 54.4118 13.6555C54.8912 14.6676 55.5422 15.437 56.3649 15.9638C57.1876 16.4846 58.1227 16.745 59.1703 16.745C60.2119 16.745 61.1441 16.4846 61.9668 15.9638C62.7954 15.437 63.4464 14.6676 63.9199 13.6555C64.3993 12.6375 64.639 11.3887 64.639 9.90909Z" fill="#8C5CB3"/>
</svg>
