<svg width="18" height="30" viewBox="0 0 18 30" fill="none" xmlns="http://www.w3.org/2000/svg">
<path d="M8.99997 10.4712C9.90795 10.4707 10.8123 10.5866 11.6908 10.8161V7.43927H14.8248L9.00061 0L3.17645 7.43927L6.31046 7.43927L6.31046 10.8157C7.18857 10.5865 8.09243 10.4707 8.99997 10.4712ZM8.99997 12.2289C4.10045 12.2289 0.11438 16.2149 0.11438 21.1144C0.11438 26.0139 4.10045 30 8.99997 30C13.8994 30 17.8855 26.0139 17.8855 21.1144C17.8855 16.2149 13.8995 12.2289 8.99997 12.2289ZM9.88073 25.2741V26.4211H8.12307V25.2815H6.58618V23.5239H9.69758C10.1016 23.5239 10.4302 23.1952 10.4302 22.7912C10.4302 22.3871 10.1015 22.0584 9.69758 22.0584H7.85468C6.44551 22.0584 5.29911 20.912 5.29911 19.5029C5.29911 18.0938 6.44551 16.9474 7.85468 16.9474H8.12307V15.8078H9.88073V16.9474H11.8259V18.705H7.85474C7.41474 18.705 7.05682 19.0629 7.05682 19.5029C7.05682 19.9429 7.41474 20.3008 7.85474 20.3008H9.69764C11.0708 20.3008 12.1879 21.418 12.1879 22.7912C12.1879 24.1027 11.1686 25.1799 9.88073 25.2741Z" fill="#557534"/>
</svg>
