<svg width="18" height="30" viewBox="0 0 18 30" fill="none" xmlns="http://www.w3.org/2000/svg">
<path d="M9.11453 19.5288C8.20655 19.5293 7.30225 19.4134 6.42374 19.1839V22.5607H3.28967L9.11389 30L14.9381 22.5607H11.804V19.1843C10.9259 19.4135 10.0221 19.5293 9.11453 19.5288ZM9.11453 17.7711C14.0141 17.7711 18.0001 13.7851 18.0001 8.88559C18.0001 3.98607 14.0141 0 9.11453 0C4.21507 0 0.229004 3.98607 0.229004 8.88559C0.229004 13.7851 4.21501 17.7711 9.11453 17.7711ZM8.23377 4.72592V3.57894H9.99143V4.71848H11.5283V6.47614H8.41692C8.01289 6.47614 7.68427 6.80482 7.68427 7.20884C7.68427 7.61287 8.01295 7.94155 8.41692 7.94155H10.2598C11.669 7.94155 12.8154 9.08795 12.8154 10.4971C12.8154 11.9062 11.669 13.0526 10.2598 13.0526H9.99143V14.1922H8.23377V13.0526H6.28864V11.295H10.2598C10.6998 11.295 11.0577 10.9371 11.0577 10.4971C11.0577 10.0571 10.6998 9.69921 10.2598 9.69921H8.41686C7.04367 9.69921 5.92656 8.58204 5.92656 7.20884C5.92656 5.89734 6.94588 4.82013 8.23377 4.72592Z" fill="#C6322A"/>
</svg>
