<svg width="45" height="50" viewBox="0 0 45 50" fill="none" xmlns="http://www.w3.org/2000/svg">
<path d="M15.7833 25.918C11.8184 25.918 8.61529 29.1211 8.67389 33.0469C8.71295 35.5664 10.0997 37.7539 12.1407 38.9746C11.4473 37.9102 11.0372 36.6504 11.0176 35.293C10.959 31.3672 14.1622 28.1641 18.127 28.1641C18.9083 28.1641 19.6602 28.291 20.3633 28.5156V20.6543C19.6309 20.5469 18.879 20.4883 18.127 20.4883H18.0196V26.2695C17.3165 26.0449 16.5645 25.918 15.7833 25.918ZM32.9219 2.34375H30.8321C31.418 5.2832 33.0684 7.8418 35.3731 9.58008C33.8594 7.57812 32.9415 5.07812 32.9219 2.34375Z" fill="#F00044"/>
<path d="M44.875 14.3066C44.1035 14.3066 43.3613 14.2285 42.6289 14.0918V19.7266C39.9727 19.7266 37.3945 19.209 34.9727 18.1738C33.4102 17.5098 31.9551 16.6602 30.6172 15.6348L30.6562 33.0078C30.6367 36.9141 29.0937 40.5762 26.3008 43.3398C24.0254 45.5859 21.1445 47.0215 18.0195 47.4805C17.2871 47.5879 16.5352 47.6465 15.7832 47.6465C12.4434 47.6465 9.25977 46.5625 6.67188 44.5605C6.96484 44.9121 7.27734 45.2539 7.61914 45.5859C10.4316 48.3594 14.1621 49.8926 18.1367 49.8926C18.8887 49.8926 19.6406 49.834 20.373 49.7266C23.498 49.2676 26.3789 47.832 28.6543 45.5859C31.4473 42.8223 32.9902 39.1602 33.0098 35.2539L32.8633 17.8809C34.1914 18.9062 35.6465 19.7656 37.2187 20.4199C39.6504 21.4453 42.2285 21.9727 44.875 21.9727" fill="#F00044"/>
<path d="M7.58989 24.8145C10.3731 22.0508 14.0743 20.5176 18.0196 20.4883V18.4082C17.2872 18.3008 16.5352 18.2422 15.7832 18.2422C11.7989 18.2422 8.05864 19.7754 5.24614 22.5684C2.48247 25.3125 0.900436 29.0625 0.910201 32.959C0.910201 36.8848 2.46294 40.5664 5.26567 43.3496C5.71489 43.7891 6.17387 44.1992 6.66215 44.5703C4.45512 41.9434 3.25395 38.6621 3.24419 35.2051C3.25395 31.3086 4.82622 27.5586 7.58989 24.8145ZM42.629 14.0918V12.002H42.6094C39.8946 12.002 37.3946 11.1035 35.3829 9.58008C37.1309 11.8848 39.6895 13.5254 42.629 14.0918Z" fill="#08FFF9"/>
<path d="M17.7266 42.207C18.6543 42.2559 19.543 42.1289 20.3633 41.8652C23.1953 40.9375 25.2363 38.3008 25.2363 35.1953L25.2461 23.5742V2.34375H30.832C30.6855 1.61133 30.6074 0.869141 30.5977 0.0976562H22.9023V21.3184L22.8926 32.9395C22.8926 36.0449 20.8516 38.6816 18.0195 39.6094C17.1992 39.8828 16.3105 40.0098 15.3828 39.9512C14.2012 39.8828 13.0977 39.5312 12.1406 38.9648C13.3418 40.8203 15.3926 42.0801 17.7266 42.207Z" fill="#08FFF9"/>
<path d="M18.0196 47.4805C21.1446 47.0215 24.0254 45.5859 26.3008 43.3398C29.0938 40.5762 30.6368 36.9141 30.6563 33.0078L30.6172 15.6348C31.9454 16.6602 33.4004 17.5195 34.9727 18.1738C37.4043 19.1992 39.9825 19.7266 42.629 19.7266V14.0918C39.6895 13.5254 37.1309 11.8848 35.3829 9.58008C33.0782 7.8418 31.418 5.2832 30.8418 2.34375H25.2461V23.5645L25.2364 35.1855C25.2364 38.291 23.1954 40.9277 20.3633 41.8555C19.543 42.1289 18.6543 42.2559 17.7266 42.1973C15.3829 42.0703 13.3418 40.8105 12.1407 38.9648C10.0997 37.7539 8.71294 35.5566 8.67387 33.0371C8.61528 29.1113 11.8184 25.9082 15.7832 25.9082C16.5645 25.9082 17.3165 26.0352 18.0196 26.2598V20.4785C14.0743 20.5078 10.3731 22.041 7.58989 24.8047C4.82622 27.5488 3.24419 31.2988 3.25395 35.1855C3.25395 38.6426 4.45512 41.9238 6.67192 44.5508C9.26958 46.5527 12.4434 47.6367 15.7832 47.6367C16.5352 47.6465 17.2872 47.5879 18.0196 47.4805Z" fill="black"/>
</svg>
