<svg width="30" height="25" viewBox="0 0 30 25" fill="none" xmlns="http://www.w3.org/2000/svg">
<path d="M25.5 15.0352C27.3482 16.4592 29 20.0446 29 22.2538C29 22.9421 28.5131 23.5 27.9124 23.5H27.25M20.25 9.19815C21.4456 8.48492 22.25 7.15183 22.25 5.625C22.25 4.09817 21.4456 2.76508 20.25 2.05185M2.08758 23.5H21.2458C21.8464 23.5 22.3333 22.9421 22.3333 22.2538C22.3333 17.9277 18.8286 14.4206 11.6667 14.4206C4.50476 14.4206 1 17.9277 1 22.2538C1 22.9421 1.48693 23.5 2.08758 23.5ZM15.6667 5.625C15.6667 7.90317 13.8758 9.75 11.6667 9.75C9.45753 9.75 7.66667 7.90317 7.66667 5.625C7.66667 3.34683 9.45753 1.5 11.6667 1.5C13.8758 1.5 15.6667 3.34683 15.6667 5.625Z" stroke="#615CB3" stroke-width="2" stroke-linecap="round"/>
</svg>
