<svg width="29" height="28" viewBox="0 0 29 28" fill="none" xmlns="http://www.w3.org/2000/svg">
<path d="M19.381 8.5625C18.4249 4.12187 16.3859 1.3125 14.5 1.3125C12.6141 1.3125 10.575 4.12187 9.6189 8.5625H19.381Z" fill="url(#paint0_linear_61_197)"/>
<path d="M9.0625 14C9.06228 15.2124 9.14311 16.4234 9.30447 17.625H19.6955C19.8569 16.4234 19.9377 15.2124 19.9375 14C19.9377 12.7876 19.8569 11.5766 19.6955 10.375H9.30447C9.14311 11.5766 9.06228 12.7876 9.0625 14Z" fill="url(#paint1_linear_61_197)"/>
<path d="M9.6189 19.4375C10.575 23.8781 12.6141 26.6875 14.5 26.6875C16.3859 26.6875 18.4249 23.8781 19.381 19.4375H9.6189Z" fill="url(#paint2_linear_61_197)"/>
<path d="M21.2371 8.56249H26.9465C26.0886 6.61021 24.7852 4.88615 23.1407 3.52858C21.4962 2.17101 19.5565 1.21772 17.4771 0.745178C19.1962 2.25771 20.5447 5.0544 21.2371 8.56249Z" fill="url(#paint3_linear_61_197)"/>
<path d="M27.5982 10.375H21.5263C21.6758 11.5775 21.7506 12.7882 21.7501 14C21.7503 15.2118 21.6752 16.4225 21.5254 17.625H27.5973C28.2582 15.2535 28.2591 12.7465 27.5982 10.375Z" fill="url(#paint4_linear_61_197)"/>
<path d="M17.4771 27.2548C19.5568 26.7825 21.4969 25.8294 23.1417 24.4718C24.7865 23.1142 26.0902 21.39 26.9483 19.4375H21.2389C20.5447 22.9456 19.1962 25.7423 17.4771 27.2548Z" fill="url(#paint5_linear_61_197)"/>
<path d="M7.76309 19.4375H2.05371C2.91174 21.39 4.21546 23.1142 5.86026 24.4718C7.50507 25.8294 9.44518 26.7825 11.5249 27.2548C9.80396 25.7423 8.45546 22.9456 7.76309 19.4375Z" fill="url(#paint6_linear_61_197)"/>
<path d="M11.523 0.745178C9.44322 1.21746 7.50312 2.17063 5.85831 3.52822C4.2135 4.8858 2.90979 6.61 2.05176 8.56249H7.76113C8.45532 5.0544 9.80382 2.25771 11.523 0.745178Z" fill="url(#paint7_linear_61_197)"/>
<path d="M7.25003 14C7.24991 12.7882 7.32497 11.5775 7.47478 10.375H1.4029C0.742002 12.7465 0.742002 15.2535 1.4029 17.625H7.47478C7.32497 16.4225 7.24991 15.2118 7.25003 14Z" fill="url(#paint8_linear_61_197)"/>
<defs>
<linearGradient id="paint0_linear_61_197" x1="-1.4002" y1="22.1463" x2="19.1835" y2="2.31028" gradientUnits="userSpaceOnUse">
<stop stop-color="#8C5CB3"/>
<stop offset="1" stop-color="#00E0A5"/>
</linearGradient>
<linearGradient id="paint1_linear_61_197" x1="2.18497" y1="25.8664" x2="22.7695" y2="6.03134" gradientUnits="userSpaceOnUse">
<stop stop-color="#8C5CB3"/>
<stop offset="1" stop-color="#00E0A5"/>
</linearGradient>
<linearGradient id="paint2_linear_61_197" x1="5.77096" y1="29.5875" x2="26.3546" y2="9.75241" gradientUnits="userSpaceOnUse">
<stop stop-color="#8C5CB3"/>
<stop offset="1" stop-color="#00E0A5"/>
</linearGradient>
<linearGradient id="paint3_linear_61_197" x1="1.2289" y1="24.8741" x2="21.8126" y2="5.03899" gradientUnits="userSpaceOnUse">
<stop stop-color="#8C5CB3"/>
<stop offset="1" stop-color="#00E0A5"/>
</linearGradient>
<linearGradient id="paint4_linear_61_197" x1="7.02992" y1="30.8943" x2="27.6145" y2="11.0583" gradientUnits="userSpaceOnUse">
<stop stop-color="#8C5CB3"/>
<stop offset="1" stop-color="#00E0A5"/>
</linearGradient>
<linearGradient id="paint5_linear_61_197" x1="9.87633" y1="33.8478" x2="30.46" y2="14.0127" gradientUnits="userSpaceOnUse">
<stop stop-color="#8C5CB3"/>
<stop offset="1" stop-color="#00E0A5"/>
</linearGradient>
<linearGradient id="paint6_linear_61_197" x1="3.14212" y1="26.8597" x2="23.7258" y2="7.02369" gradientUnits="userSpaceOnUse">
<stop stop-color="#8C5CB3"/>
<stop offset="1" stop-color="#00E0A5"/>
</linearGradient>
<linearGradient id="paint7_linear_61_197" x1="-5.50546" y1="17.886" x2="15.0791" y2="-1.95001" gradientUnits="userSpaceOnUse">
<stop stop-color="#8C5CB3"/>
<stop offset="1" stop-color="#00E0A5"/>
</linearGradient>
<linearGradient id="paint8_linear_61_197" x1="-2.65891" y1="20.8395" x2="17.9247" y2="1.00438" gradientUnits="userSpaceOnUse">
<stop stop-color="#8C5CB3"/>
<stop offset="1" stop-color="#00E0A5"/>
</linearGradient>
</defs>
</svg>
