<svg width="16" height="20" viewBox="0 0 16 20" fill="none" xmlns="http://www.w3.org/2000/svg">
<path d="M12.9032 7.5313V4.8718C12.9032 2.18564 10.7035 0 8 0C5.29652 0 3.09677 2.18564 3.09677 4.8718V7.5323C1.28619 8.24923 0 10 0 12.0513V15.1282C0 17.8144 2.19974 20 4.90323 20H11.0968C13.8003 20 16 17.8144 16 15.1282V12.0513C16 10 14.7138 8.24822 12.9032 7.5313ZM4.64516 4.8718C4.64516 3.03385 6.15019 1.53846 8 1.53846C9.84981 1.53846 11.3548 3.03385 11.3548 4.8718V7.20515C11.2671 7.20003 11.1855 7.17949 11.0968 7.17949H4.90323C4.81445 7.17949 4.7329 7.20105 4.64516 7.20515V4.8718ZM14.4516 15.1282C14.4516 16.9662 12.9466 18.4615 11.0968 18.4615H4.90323C3.05342 18.4615 1.54839 16.9662 1.54839 15.1282V12.0513C1.54839 10.2133 3.05342 8.71795 4.90323 8.71795H11.0968C12.9466 8.71795 14.4516 10.2133 14.4516 12.0513V15.1282ZM8.77419 13.0769V14.1026C8.77419 14.5272 8.42735 14.8718 8 14.8718C7.57264 14.8718 7.22581 14.5272 7.22581 14.1026V13.0769C7.22581 12.6523 7.57264 12.3077 8 12.3077C8.42735 12.3077 8.77419 12.6523 8.77419 13.0769Z" fill="#606060"/>
</svg>
