<svg width="20" height="20" viewBox="0 0 20 20" fill="none" xmlns="http://www.w3.org/2000/svg">
<path d="M10.9507 18.6222H3.27622C2.23543 18.6222 1.3614 17.6987 1.3614 16.6185V6.59648H18.379V10.1407C18.379 10.5289 18.6714 10.8438 19.0597 10.8438C19.4479 10.8438 19.7404 10.5291 19.7404 10.1407V3.39582C19.7404 1.56405 18.2784 0.0163574 16.4664 0.0163574H3.27622C1.46011 0.0163574 0 1.53228 0 3.39582V16.6185C0 18.474 1.46011 19.9836 3.27622 19.9836H10.9507C11.3389 19.9836 11.6538 19.6911 11.6538 19.3029C11.6538 18.9147 11.3389 18.6222 10.9507 18.6222ZM1.3614 3.39582C1.3614 2.32621 2.25312 1.37776 3.27622 1.37776H16.4664C17.5163 1.37776 18.379 2.32621 18.379 3.39582V5.23507H1.3614V3.39582Z" fill="#606060"/>
<path d="M16.0129 2.74048H15.7318C15.3436 2.74048 15.0286 3.1464 15.0286 3.53463C15.0286 3.92286 15.3433 4.32878 15.7318 4.32878H16.0129C16.4011 4.32878 16.7161 3.92286 16.7161 3.53463C16.7161 3.1464 16.4011 2.74048 16.0129 2.74048ZM13.6223 2.74048H13.3412C12.9529 2.74048 12.638 3.1464 12.638 3.53463C12.638 3.92286 12.9527 4.32878 13.3412 4.32878H13.6223C14.0105 4.32878 14.3255 3.92286 14.3255 3.53463C14.3255 3.1464 14.0108 2.74048 13.6223 2.74048ZM11.0914 2.74048H10.8103C10.4221 2.74048 10.1072 3.1464 10.1072 3.53463C10.1072 3.92286 10.4219 4.32878 10.8103 4.32878H11.0914C11.4797 4.32878 11.7946 3.92286 11.7946 3.53463C11.7946 3.1464 11.4797 2.74048 11.0914 2.74048ZM10.6386 12.8185C10.3413 12.5205 10.1743 12.1167 10.1743 11.6958C10.1743 11.2749 10.3413 10.8711 10.6386 10.5731L10.6483 10.5633C11.2682 9.95342 12.2688 9.95615 12.8849 10.5722L14.524 12.2113C14.6566 12.3394 14.8342 12.4103 15.0186 12.4088C15.203 12.4072 15.3794 12.3332 15.5098 12.2028C15.6402 12.0724 15.7141 11.8961 15.7157 11.7117C15.7173 11.5273 15.6464 11.3496 15.5183 11.217L13.8789 9.57768C12.7117 8.41073 10.8124 8.41095 9.64495 9.57768L9.62385 9.59901C8.19665 11.0505 9.07861 13.2471 9.64405 13.8126L11.2832 15.4517C11.4205 15.589 11.8554 15.9289 12.2775 15.4517C12.5348 15.1608 12.552 14.732 12.2775 14.4574L10.6386 12.8185ZM19.1246 14.8236L17.4855 13.1845C17.3529 13.0564 17.1753 12.9855 16.9909 12.987C16.8065 12.9886 16.6301 13.0626 16.4997 13.193C16.3693 13.3234 16.2954 13.4997 16.2938 13.6841C16.2922 13.8685 16.3631 14.0462 16.4912 14.1788L18.1304 15.8179C18.4276 16.1159 18.5946 16.5197 18.5946 16.9406C18.5946 17.3615 18.4276 17.7653 18.1304 18.0633L18.124 18.0697C17.5043 18.6832 16.5012 18.6814 15.884 18.0642L14.2449 16.4249C14.1123 16.2967 13.9347 16.2258 13.7503 16.2274C13.5659 16.229 13.3895 16.3029 13.2591 16.4333C13.1287 16.5637 13.0548 16.7401 13.0532 16.9245C13.0516 17.1089 13.1225 17.2865 13.2506 17.4191L14.89 19.0585C15.4736 19.6419 17.4717 20.694 19.1237 19.0585L19.1346 19.0476C20.2918 17.8795 20.2884 15.9874 19.1246 14.8236Z" fill="#606060"/>
<path d="M12.1256 12.1178C11.9937 12.2497 11.9197 12.4285 11.9197 12.615C11.9197 12.8014 11.9937 12.9803 12.1256 13.1121L15.6055 16.5921C15.7428 16.7294 16.2803 17.0341 16.5998 16.5921C16.8272 16.2774 16.8744 15.8724 16.5998 15.5978L13.1198 12.1178C13.0546 12.0525 12.9771 12.0007 12.8918 11.9654C12.8065 11.9301 12.715 11.9119 12.6227 11.9119C12.5304 11.9119 12.4389 11.9301 12.3536 11.9654C12.2683 12.0007 12.1908 12.0525 12.1256 12.1178Z" fill="#606060"/>
</svg>
