<svg width="38" height="38" viewBox="0 0 38 38" fill="none" xmlns="http://www.w3.org/2000/svg">
<path d="M6.625 32.5C7.48969 31.5316 11.5395 27.075 12.7263 27.075H25.2745C26.9943 27.075 30.505 30.7692 31.375 32.0714M37 19C37 28.9411 28.9411 37 19 37C9.05888 37 1 28.9411 1 19C1 9.05888 9.05888 1 19 1C28.9411 1 37 9.05888 37 19ZM25.4478 12.8649C25.4478 9.43084 22.5488 6.625 19.0005 6.625C15.4523 6.625 12.5533 9.43084 12.5533 12.8649C12.5533 16.299 15.4523 19.1048 19.0005 19.1048C22.5487 19.1048 25.4478 16.299 25.4478 12.8649Z" stroke="#626262" stroke-width="1.5"/>
</svg>
