<svg width="15" height="20" viewBox="0 0 15 20" fill="none" xmlns="http://www.w3.org/2000/svg">
<path d="M7.49903 10.769C10.301 10.769 12.5803 8.35363 12.5803 5.38448C12.5803 2.41532 10.301 0 7.49903 0C4.69705 0 2.41772 2.41532 2.41772 5.38448C2.41772 8.35363 4.69705 10.769 7.49903 10.769ZM7.49903 1.53842C9.50058 1.53842 11.1285 3.26351 11.1285 5.38448C11.1285 7.50545 9.50058 9.23053 7.49903 9.23053C5.49748 9.23053 3.86952 7.50545 3.86952 5.38448C3.86952 3.26351 5.49748 1.53842 7.49903 1.53842ZM15 16.1196V17.1565C15 18.1155 14.67 19.0344 14.0699 19.7431C13.9266 19.9133 13.7282 19.9995 13.5288 19.9995C13.3565 19.9995 13.1833 19.9348 13.0449 19.8036C12.7458 19.5205 12.7216 19.0344 12.9888 18.7175C13.3498 18.2898 13.5491 17.736 13.5491 17.1575V16.1206C13.5491 14.5678 12.5774 13.2242 11.1846 12.854C10.9398 12.7883 10.6765 12.8243 10.4626 12.9525C8.62273 14.0376 6.37144 14.0334 4.54314 12.9555C4.3244 12.8232 4.06117 12.7853 3.8163 12.853C2.42353 13.2243 1.4508 14.5678 1.4508 16.1206V17.1575C1.4508 17.737 1.65022 18.2908 2.01123 18.7175C2.27836 19.0344 2.25316 19.5205 1.95505 19.8036C1.65501 20.0876 1.19628 20.06 0.930119 19.7441C0.330041 19.0344 0 18.1154 0 17.1575V16.1206C0 13.8622 1.4237 11.9053 3.46203 11.3618C4.06501 11.1997 4.72026 11.2921 5.25646 11.6162C6.64051 12.4326 8.35561 12.4356 9.75128 11.613C10.2807 11.293 10.9359 11.2017 11.5409 11.3628C13.5763 11.9033 15 13.8602 15 16.1196Z" fill="#8C5CB3"/>
</svg>
